<svg id="Layer_1" data-name="Layer 1" xmlns="http://www.w3.org/2000/svg" viewBox="0 0 253 253"><defs><style>.cls-1{fill:gray}.cls-2{fill:#fff}</style></defs><title>Icons_CAT_404</title><circle class="cls-1" cx="126.5" cy="126.5" r="126.5"/><path class="cls-2" d="M171.8 79.09c4 .73 7.18 3.26 10.71 5 .68-.22 1.8.23 1.74-1.15-.39-8.53 1-17 .14-25.58a6.11 6.11 0 0 1-.79-2.23c.4-5.16-1.83-4.43-5.15-2.64-3 1.62-4.53 4.59-7 6.63-1.19 4.28-2.53 8.52 1.57 12.18 2.19 2 2.1 3.58-1.19 4.19-1.08.2-2.63.14-2.58 1.7 0 1.4 1.5 1.71 2.55 1.9z"/><path class="cls-2" d="M213.84 218a13.44 13.44 0 0 0-2.14-5c-1.95-2.76-1.07-5.68-2.23-8.79s-3.11-5.9-2.27-9.52c1.17-5 .3-10.21 1-15.38.77-6-1.06-12.74-2.38-19.12s-5.58-12.06-4.61-18.9c.58-4-.75-7.46-2.65-10.9-2.72-4.95-7.27-8.17-11-12.18a18.35 18.35 0 0 1 0-8.79 3.63 3.63 0 0 0 .58-1.34c-.52-15.18 2.37-30 4.12-45 .51-4.33 1.15-9-1.67-13-5-7.19-8.87-7.8-15.41-2.11-2.45 2.13-4.55 4.67-6.82 7L153.54 73.3c-3.21 1.2-5.61 6-10 2.12-2.71-2.44-13.82-3.91-16.14-1.3-3.5 3.94-9.11.08-12.11 4.23-6.47-1.49-13.27 2.19-19.61-1.28-11.45-6-18.88-16.45-28.06-25-1-.91-1.66-2.05-3.21-1.85-2.68-2.31-5.26-5-9.18-2.22-3.14 3.88-1.38 8.1-.86 12.23.85 6.32 3.14 12.18 5.62 18a1.75 1.75 0 0 0 .42 1l1 7c-.5 2.39.78 4.54.91 6.85-1.45 8-2.75 16-1.8 24.21a9.47 9.47 0 0 0 .39-.9 2.34 2.34 0 0 1-.39.9 27.23 27.23 0 0 0-1.84 3c-3.35 7.23-1.89 16.44-9.05 22.14a2.66 2.66 0 0 0-.09 1.45c-.06 5.49-.33 11-.09 16.48.19 4.25 1.9 8.52-1.17 12.46a2.14 2.14 0 0 0 .26 2.78c1.87 2.09.89 3.58-.86 5a6.05 6.05 0 0 0-1.77 7.28c3.58 6.82-1.34 13.39.86 20.39a37.66 37.66 0 0 0-1.17 15.51A126.49 126.49 0 0 0 213.84 218zM155.4 75.15c4.37-6.2 10.35-11.15 14-17.93l.26.12c2.93-3.09 4.63-7.69 9.81-8 3.92-2.5 7-1 9.69 2.09 2.56 9-.54 17.71-1.4 26.54-.43 4.44-.93 8.87-1.4 13.31l-.95 1-.11 7.65c-1.31 3.59.91 7.58-1.24 11.08l.16.07c-2.09.26-2.92-.56-2.76-2.74.34-4.75-1.59-8.61-5.05-11.77-1.82-1.66-2.14-4.18-3.08-6.35-.7-1-1.41-1.91-2.15-2.83-1.67-2.85-3.93-4.08-7.3-5.16-2.62-.84-5.32-2.5-8.3-3.33-2.26-.68-.3-2.47-.18-3.75zM134 97.17c.22-1.8 4-2.37 6.44-1a2.74 2.74 0 0 1 .47.82c5.45-2.12 7.5 6.39 13.07 4.14 2.16-.87 3.87.43 5.16 2.12 3.56 4.7 7.27 9.16 13.46 10.51a2.81 2.81 0 0 1 1.94 1.4c1.21 6.23 6.8 9.27 10 14a14.73 14.73 0 0 1-.12 16.31 16.74 16.74 0 0 0-2.86 8.9c-.61 11.68-3.74 14.92-16.81 14.57-4.52 1.26-7.74-2.56-11.62-4.62-2.41-1.28-1.23-2.93 0-4 4.23-3.81 1.47-8.7 2.19-13a2.79 2.79 0 0 0-1.32-1.92 63.87 63.87 0 0 1-19-20.46c-5.3-9-2.17-18.52-1-27.77zm-9.26 7.9c.67-2.7.55-5.63 3.07-9.34.35 4 .65 6.79.79 9.55.06 1.06.4 2.7-1.31 2.67-1.59-.04-3.08-.95-2.59-2.89zM62.81 108c.31-4.28 1-8.53 1.5-12.79l.1-4.32c4.82-.75 9-3.34 13.62-4.7 3.53-1 4.56-4.06 2.22-7-4.41-5.65-8-11.89-12.44-17.49-1.47-1.84-3.13-3.76-5.84-2.93-2.51.78-2.69 3.12-2.87 5.33a11.31 11.31 0 0 0-.76 1.75c-1.49-2.69-1.55-5.83-2.66-8.62h-.09v-.12c.44-2.61-.74-5.62 1.95-7.66 2.27-.4 3.93 1 5.74 2 9.35 9.76 17.84 20.48 30 27.09.09 3.37-.41 4.87-4.89 5.15-3.66.23-7.09 4.18-10.59 6.52-.39.26-.56 1-.94 1.12-10 2.85-9.46 11.4-10.35 19.17-3.29 2.42-3.89.13-3.7-2.5zm35.57 34.77a3.86 3.86 0 0 1-.74.67c-7.38 5.87-7.38 5.86-3.54 14.37a3.8 3.8 0 0 0 .54 1.32c1.2 1 4.82.5 2.31 3.72-1.8 2.32-3.49 5.41-7.19 3.36-1.64-.91-2.85-.2-4.25.13-5.63 1.32-8.14-.5-8.61-6.2-.08-1 .08-2.45-.48-2.86-5.56-4-5.5-10.9-8.13-16.36-1.53-3.17-1.25-7.16-2.25-10.65-1.32-4.63 2.92-5.82 4.71-8.53 3.08-4.65 7.29-8.3 10.86-12.51a14.2 14.2 0 0 1 4.88-3.33c1.93-1 4.32-1.46 5.72-2.93 5-5.18 12.43-4.92 18-8.69 1-.71 3.37-3.34 5.78.22 1.52 2.25 1.71-2.48 3.93-2.39 3.94 3.43 3.79 7.58 2.31 12.18-2 6.17-3.62 12.44-5.41 18.67a14.12 14.12 0 0 1-4.36 6.53c-4.7 4.38-10.18 7.98-14.08 13.27zm27.92 4.65c-5-.76-8.56 1.52-11.37 5.45a43.84 43.84 0 0 1-3.28 3.67c-1.94 3.43-4.36 6.21-9.75 7.43 2.76-4.27 6.11-6.05 8.54-8.71 3.1-4.62 6.26-9.19 12.35-10.18 2.56-6.36-2.91-6.27-6.3-7.84-.94-.51-1.13-1.35 0-1.55 1.66-.3 3.47-.63 5.06.46 2.12.74 4.2 2.07 6.41.14 1.92-1.67 3.55.45 5.49.43-3.26 2.45-9.68 1.74-7.93 8.55l2.19.73c3.1 1.83 6.28 3.53 8.62 6.38a30.61 30.61 0 0 1 8 12.12c-4.89-2.3-6.59-7.5-10-11.13-2.54-2.15-5-4.46-8-6z"/><path class="cls-2" d="M159.68 115.49a50 50 0 0 0-9.17 2c-4.52 1.47-5.42 5-2.52 8.75 2.12 2.76 5.1 3.46 9.76 3.48a9 9 0 0 0 7.44-4.52c1.36-2.12 2.63-4.54 1.42-7-1.36-2.7-4.27-3.05-6.93-2.71zm-4.18 8.77c-2 .29-1.81-1.41-1.86-2.65s-.1-2.93 1.53-3.13 2 1.3 2 2.72c-.08 1.24-.03 2.8-1.67 3.05zM100.54 114.36a75.77 75.77 0 0 0-9.73-1.94c-2.73-.3-5 .75-5.09 4-.23 6 4.62 11 11.49 10.88a22.15 22.15 0 0 0 3.88-1.1c2.81-1.25 5.54-3 5.27-6.49-.26-3.2-2.96-4.64-5.82-5.35zm-4.46 6.7c-1.07.21-1.32-.77-1.4-1.59-.13-1.34 0-2.6 1.28-3.3a2 2 0 0 1 2 1.93 2.36 2.36 0 0 1-1.88 2.96z"/></svg>