<svg height="295.947" viewBox="0 0 84 295.9473" width="84" xmlns="http://www.w3.org/2000/svg"><g fill="#828282" fill-rule="evenodd"><g><path d="m57.414 10.505v-7.358a3.02 3.02 0 0 1 .823-2.217 2.972 2.972 0 0 1 2.16-.93c1.648 0 2.984 1.346 2.984 3.007.04 5.012.04 10.024 0 15.036-.027 1.641-1.355 2.957-2.984 2.957-1.647 0-2.983-1.346-2.983-3.007zm-29.004 0v7.525c-.026 1.342-.918 2.507-2.19 2.862a2.954 2.954 0 0 1 -3.318-1.327 3.964 3.964 0 0 1 -.447-1.778 997.215 997.215 0 0 1 -.03-14.757 3.04 3.04 0 0 1 1.489-2.624 2.932 2.932 0 0 1 2.977 0 3.04 3.04 0 0 1 1.489 2.624c.04 2.525.03 5.05.03 7.475zm-6.986 37.508h3.161c.487-.065.975.114 1.327.486.352.373.531.9.487 1.432v7.12c.06.54-.116 1.08-.473 1.459a1.511 1.511 0 0 1 -1.35.47h-6.322a1.511 1.511 0 0 1 -1.331-.466 1.834 1.834 0 0 1 -.484-1.431c-.038-2.37-.038-4.744 0-7.12a1.885 1.885 0 0 1 .506-1.426c.354-.369.841-.546 1.328-.482h3.16zm14.966 10.972h-3.16a1.574 1.574 0 0 1 -1.786-1.672 167.38 167.38 0 0 1 0-6.689 1.568 1.568 0 0 1 1.738-1.614h6.425a1.632 1.632 0 0 1 1.795 1.777v6.43a1.616 1.616 0 0 1 -1.824 1.768zm13.923-.001h-3.153a1.542 1.542 0 0 1 -1.715-1.623c-.044-2.24-.044-4.469 0-6.684a1.608 1.608 0 0 1 1.8-1.661h6.309a1.616 1.616 0 0 1 1.83 1.738c.037 2.17.037 4.344 0 6.521.036.484-.149.96-.502 1.291a1.599 1.599 0 0 1 -1.319.418h-3.249zm15.207-10.967h2.963a1.606 1.606 0 0 1 1.404.5c.372.393.56.95.508 1.511v6.9a1.891 1.891 0 0 1 -.487 1.535 1.557 1.557 0 0 1 -1.425.476c-2.077.028-4.145.042-6.203.042-.487.079-.98-.09-1.338-.458a1.84 1.84 0 0 1 -.498-1.428 194.912 194.912 0 0 1 0-7.223 1.823 1.823 0 0 1 .513-1.369c.35-.35.824-.513 1.294-.444h3.26l.01-.042zm-44.082 25.961h-3.168a1.517 1.517 0 0 1 -1.34-.44 1.847 1.847 0 0 1 -.516-1.423v-7.251a1.858 1.858 0 0 1 .503-1.378c.344-.357.815-.53 1.286-.474h6.333a1.6 1.6 0 0 1 1.371.517c.363.39.544.939.495 1.492v7.032c0 1.34-.632 1.915-1.914 1.925h-3.07.019zm14.915.013h-3.254a1.419 1.419 0 0 1 -1.188-.445 1.73 1.73 0 0 1 -.462-1.282 183 183 0 0 1 0-7.474 1.805 1.805 0 0 1 .477-1.28 1.488 1.488 0 0 1 1.183-.479c2.207-.041 4.411-.041 6.612 0a1.47 1.47 0 0 1 1.183.476c.315.335.485.802.467 1.283.048 2.45.058 4.91 0 7.327a1.811 1.811 0 0 1 -.48 1.385 1.48 1.48 0 0 1 -1.285.458h-3.253zm14.064-.011h-3.257a1.464 1.464 0 0 1 -1.239-.443 1.779 1.779 0 0 1 -.489-1.323c-.048-2.488 0-4.975 0-7.463-.007-.48.172-.941.492-1.27.32-.328.751-.493 1.189-.455 2.17-.035 4.344-.035 6.522 0 .472-.04.937.146 1.273.512.336.365.509.873.474 1.39.038 2.412.038 4.826 0 7.244a1.791 1.791 0 0 1 -.495 1.375 1.47 1.47 0 0 1 -1.29.434h-3.181zm-18.979-34.504v-3.361a1.801 1.801 0 0 1 2.042-2.094h6.931a1.717 1.717 0 0 1 1.968 1.916c.042 2.38.042 4.764 0 7.152a1.676 1.676 0 0 1 -1.81 1.864c-2.45.063-4.894.063-7.33 0a1.696 1.696 0 0 1 -1.759-1.916v-3.571zm28.983-.056v-3.467a1.854 1.854 0 0 1 .462-1.445c.348-.379.835-.56 1.32-.492h6.406c.488-.074.98.108 1.327.49.348.382.513.922.446 1.458.038 2.345.038 4.69 0 7.036.06.537-.11 1.073-.457 1.456a1.518 1.518 0 0 1 -1.325.502c-2.135.056-4.27.056-6.406 0-1.239 0-1.744-.68-1.773-2.094-.019-1.141 0-2.293 0-3.445zm-10.034-5.4h3.155a1.61 1.61 0 0 1 1.849 1.802v6.312a1.612 1.612 0 0 1 -1.802 1.85h-6.31a1.62 1.62 0 0 1 -1.84-1.812 179.445 179.445 0 0 1 0-6.407 1.583 1.583 0 0 1 1.792-1.745c1.049-.029 2.107 0 3.156 0zm-18.977-26.02h23v6h-23z"/><path d="m69.87 8.01h-3.46v6h3.46c3.15 0 5.54 2.069 5.54 5.219v54.553c0 3.15-2.38 6.219-5.54 6.219h-54.56c-3.15 0-5.9-3.07-5.9-6.22v-54.561c0-3.15 2.75-5.22 5.9-5.22h4.1v-6h-4.1c-6.46 0-11.9 4.76-11.9 11.219v54.563c0 6.458 5.44 12.218 11.9 12.218h54.56c6.46 0 11.54-5.76 11.54-12.218v-54.563c0-6.46-5.08-11.209-11.54-11.209z"/></g><g><path d="m42.044 196.396a2.879 2.879 0 0 1 -2.171-1.003c-1.29-1.524-2.582-3.009-3.852-4.513l-.13-.12c-5.334-6.22-10.357-12.037-14.53-18.818-3.912-6.34-8.755-14.835-11.537-24.314a39.713 39.713 0 0 1 -1.27-18.507c2.391-13.52 13.938-24.976 27.407-27.223 1.984-.332 3.992-.5 6.003-.501 14.75-.06 27.831 9.49 32.3 23.582a36.697 36.697 0 0 1 .93 18.797c-1.73 9.218-5.583 18.286-12.137 28.537a113.045 113.045 0 0 1 -13.188 16.801c-1.74 1.836-3.442 3.772-5.083 5.637l-.58.662a2.879 2.879 0 0 1 -2.162.983zm-.079-89a30.127 30.127 0 0 0 -4.962.422c-11.368 2.147-20.297 11.083-22.545 22.561a34.412 34.412 0 0 0 1.122 15.904c2.56 8.806 7.124 16.868 10.816 22.902 3.9 6.386 8.732 12.049 13.892 18.073l.119.13 1.717 2.008c1.17-1.335 2.352-2.66 3.582-4.016a107.316 107.316 0 0 0 12.364-15.904c6.083-9.618 9.655-18.072 11.233-26.516a31.377 31.377 0 0 0 -.724-15.914c-3.663-11.74-14.448-19.702-26.614-19.65z"/><path d="m57 136.345c-.028-8.261-6.732-14.945-14.993-14.949-8.262-.003-14.971 6.675-15.007 14.936-.035 8.262 6.617 14.997 14.878 15.064a15.081 15.081 0 0 0 15.122-15.05z"/></g><g><path d="m20.933 287.853a6.144 6.144 0 0 1 -8.734 0l-4.168-4.216a6.279 6.279 0 0 1 0-8.812l30.497-30.744a6.144 6.144 0 0 1 8.734 0l4.168 4.206c3.106 3.135 7.77-1.001 4.396-4.436l-4.128-4.246a12.327 12.327 0 0 0 -17.526 0l-30.547 30.794c-4.833 4.886-4.833 12.798 0 17.685l4.168 4.206a12.327 12.327 0 0 0 17.526 0l12.802-12.919c2.849-2.874-1.2-7.66-4.485-4.346z"/><path d="m63.077 219.053a6.148 6.148 0 0 1 8.734 0l4.168 4.202a6.268 6.268 0 0 1 0 8.804l-30.507 30.803a6.148 6.148 0 0 1 -8.734 0l-4.168-4.202c-3.106-3.132-7.77 1-4.396 4.432l4.168 4.201a12.335 12.335 0 0 0 17.526 0l30.507-30.793c4.833-4.881 4.833-12.785 0-17.667l-4.168-4.202a12.356 12.356 0 0 0 -8.786-3.684 12.355 12.355 0 0 0 -8.79 3.674l-12.801 12.906c-2.848 2.87 1.2 7.653 4.486 4.341l12.762-12.815z"/></g></g></svg>