<?xml version="1.0" encoding="UTF-8" standalone="no"?>
<!-- Created with Inkscape (http://www.inkscape.org/) -->

<svg
   xmlns:dc="http://purl.org/dc/elements/1.1/"
   xmlns:cc="http://creativecommons.org/ns#"
   xmlns:rdf="http://www.w3.org/1999/02/22-rdf-syntax-ns#"
   xmlns:svg="http://www.w3.org/2000/svg"
   xmlns="http://www.w3.org/2000/svg"
   xmlns:sodipodi="http://sodipodi.sourceforge.net/DTD/sodipodi-0.dtd"
   xmlns:inkscape="http://www.inkscape.org/namespaces/inkscape"
   width="84"
   height="295.9473"
   viewBox="0 0 84 295.9473"
   id="svg3355"
   version="1.1"
   inkscape:version="0.91 r13725"
   sodipodi:docname="drawing2.svg">
  <defs
     id="defs3357" />
  <sodipodi:namedview
     id="base"
     pagecolor="#ffffff"
     bordercolor="#666666"
     borderopacity="1.0"
     inkscape:pageopacity="0.0"
     inkscape:pageshadow="2"
     inkscape:zoom="1.979899"
     inkscape:cx="39.258575"
     inkscape:cy="123.04594"
     inkscape:document-units="px"
     inkscape:current-layer="layer1"
     showgrid="false"
     inkscape:window-width="1867"
     inkscape:window-height="1056"
     inkscape:window-x="53"
     inkscape:window-y="24"
     inkscape:window-maximized="1"
     units="px"
     fit-margin-top="0"
     fit-margin-left="0"
     fit-margin-right="0"
     fit-margin-bottom="0" />
  <metadata
     id="metadata3360">
    <rdf:RDF>
      <cc:Work
         rdf:about="">
        <dc:format>image/svg+xml</dc:format>
        <dc:type
           rdf:resource="http://purl.org/dc/dcmitype/StillImage" />
        <dc:title></dc:title>
      </cc:Work>
    </rdf:RDF>
  </metadata>
  <g
     inkscape:label="Layer 1"
     inkscape:groupmode="layer"
     id="layer1"
     style="display:inline;opacity:1"
     sodipodi:insensitive="true"
     transform="translate(-3.961941,-9.9857901)">
    <g
       style="fill:none;fill-rule:evenodd;stroke:none;stroke-width:1"
       id="Symbols"
       transform="translate(7.3727053,9.9857901)">
      <g
         style="fill:#828282"
         id="ic-1-07"
         transform="translate(0,-1)">
        <g
           id="Слой_1">
          <path
             inkscape:connector-curvature="0"
             d="m 54.003254,11.505013 0,-7.3575174 c -0.03808,-0.8215734 0.259355,-1.6230149 0.823042,-2.2176947 0.563687,-0.5946798 1.344428,-0.9306952 2.160414,-0.9297991 1.647717,0 2.983455,1.3463512 2.983455,3.0071596 0.03978,5.0119328 0.03978,10.0238656 0,15.0357986 -0.02714,1.641203 -1.354963,2.957268 -2.983455,2.95704 -1.647717,0 -2.983456,-1.346351 -2.983456,-3.00716 l 0,-7.467779 0,0 0,-0.02005 z"
             id="Shape" />
          <path
             inkscape:connector-curvature="0"
             d="m 24.998897,11.504624 0,7.524947 c -0.02613,1.342752 -0.917576,2.507807 -2.190305,2.862559 -1.272729,0.354753 -2.623058,-0.185441 -3.317781,-1.327268 -0.285348,-0.548111 -0.438433,-1.157467 -0.446602,-1.777705 -0.04631,-4.915626 -0.05624,-9.8346178 -0.02977,-14.7569769 0,-1.0825791 0.567478,-2.0829234 1.488672,-2.6242129 0.921193,-0.54128959 2.05615,-0.54128959 2.977344,0 0.921193,0.5412895 1.488672,1.5416338 1.488672,2.6242129 0.0397,2.52515 0.02977,5.0503 0.02977,7.4744439 l 0,0 z"
             id="path3490" />
          <path
             inkscape:connector-curvature="0"
             d="m 18.013404,49.013183 3.160833,0 c 0.486833,-0.06516 0.974552,0.113465 1.326891,0.485959 0.352339,0.372494 0.531521,0.898921 0.487484,1.432202 l 0,7.120131 c 0.05942,0.540156 -0.115886,1.079578 -0.473849,1.458083 -0.357964,0.378504 -0.857429,0.552569 -1.350076,0.470503 l -6.321664,0 c -0.485627,0.07646 -0.976462,-0.09538 -1.330784,-0.465898 -0.354323,-0.370519 -0.532686,-0.898469 -0.483591,-1.431413 -0.0382,-2.369902 -0.0382,-4.74328 0,-7.120132 -0.03481,-0.533574 0.150426,-1.05625 0.505124,-1.425315 0.354699,-0.369065 0.841816,-0.545973 1.32835,-0.482421 l 3.160832,0 0,0 -0.0095,-0.0417 z"
             id="path3492" />
          <path
             inkscape:connector-curvature="0"
             d="m 32.97892,59.985073 -3.160158,0 c -0.469965,0.06446 -0.943933,-0.08646 -1.290283,-0.410848 -0.346351,-0.324388 -0.528205,-0.787704 -0.495063,-1.261287 -0.04455,-2.242254 -0.04455,-4.471768 0,-6.688541 -0.01667,-0.455431 0.165597,-0.895562 0.499287,-1.205668 0.333689,-0.310106 0.78574,-0.459462 1.238322,-0.409137 l 6.425337,0 c 0.486416,-0.05079 0.969963,0.119341 1.317622,0.463582 0.34766,0.34424 0.522811,0.826332 0.477271,1.313659 l 0,6.430554 c 0.05148,0.493191 -0.126299,0.98271 -0.482196,1.327707 -0.355897,0.344997 -0.850443,0.507215 -1.341339,0.439979 -1.059751,0 -2.109955,0 -3.1888,0 l 0,0 z"
             id="path3494" />
          <path
             inkscape:connector-curvature="0"
             d="m 46.902334,59.984247 -3.153882,0 c -0.451802,0.05134 -0.903208,-0.09955 -1.233778,-0.412412 -0.33057,-0.312857 -0.506674,-0.755852 -0.481325,-1.21079 -0.04447,-2.240656 -0.04447,-4.468581 0,-6.683775 -0.01727,-0.471441 0.172193,-0.926847 0.518541,-1.246373 0.346349,-0.319526 0.814888,-0.471169 1.282317,-0.415022 l 6.307765,0 c 0.486014,-0.0688 0.976802,0.0883 1.33303,0.426677 0.356227,0.338379 0.538994,0.821095 0.496413,1.311104 0.03811,2.170636 0.03811,4.344454 0,6.521454 0.03649,0.484306 -0.147952,0.9591 -0.501595,1.291217 -0.353644,0.332117 -0.838404,0.485791 -1.318319,0.41792 l -3.249167,0 0,0 z"
             id="path3496" />
          <path
             inkscape:connector-curvature="0"
             d="m 62.109335,49.01688 2.963318,0 c 0.513323,-0.0762 1.030374,0.108198 1.403162,0.50042 0.372788,0.392222 0.560223,0.949034 0.508657,1.511063 l 0,6.899492 c 0.07198,0.567284 -0.108972,1.137921 -0.486943,1.535596 -0.377971,0.397675 -0.907463,0.574518 -1.424876,0.475887 -2.077509,0.02779 -4.145459,0.04169 -6.20385,0.04169 -0.486556,0.0787 -0.979359,-0.09005 -1.337273,-0.457919 -0.357914,-0.367874 -0.541461,-0.894295 -0.498073,-1.428498 -0.04461,-2.404053 -0.04461,-4.811579 0,-7.22258 -0.02411,-0.51677 0.163918,-1.018445 0.513071,-1.368911 0.349154,-0.350467 0.823227,-0.513384 1.293597,-0.44455 l 3.259651,0 0,0 0.0096,-0.04169 z"
             id="path3498" />
          <path
             inkscape:connector-curvature="0"
             d="m 18.026791,74.978083 -3.16664,0 c -0.484603,0.08446 -0.977931,-0.07786 -1.33951,-0.440727 -0.361579,-0.36287 -0.551788,-0.886533 -0.516465,-1.421876 l 0,-7.251596 c -0.02522,-0.517922 0.158708,-1.021842 0.50309,-1.378377 0.344382,-0.356535 0.8145,-0.529737 1.285917,-0.473762 l 6.333279,0 c 0.505035,-0.06265 1.00892,0.127577 1.371098,0.517626 0.362179,0.390049 0.543889,0.938172 0.494445,1.491474 l 0,7.03185 c 0,1.339401 -0.631415,1.914924 -1.913378,1.925388 l -3.07097,0 0,0 0.01913,0 z"
             id="path3500" />
          <path
             inkscape:connector-curvature="0"
             d="m 32.942119,74.991165 -3.253403,0 c -0.436617,0.04985 -0.871188,-0.112947 -1.188847,-0.445354 -0.31766,-0.332408 -0.486432,-0.800967 -0.461706,-1.281829 -0.05088,-2.491331 -0.05088,-4.982661 0,-7.473992 -0.01153,-0.481259 0.161657,-0.945714 0.477324,-1.28011 0.315667,-0.334395 0.744805,-0.507998 1.18277,-0.478477 2.207098,-0.04187 4.411016,-0.04187 6.611753,0 0.437923,-0.03307 0.868007,0.139708 1.182915,0.475227 0.314909,0.33552 0.484932,0.802124 0.467638,1.28336 0.0477,2.44946 0.05725,4.909387 0,7.327444 0.03873,0.517482 -0.138086,1.026394 -0.480955,1.384277 -0.342869,0.357882 -0.814948,0.526279 -1.284087,0.458051 l -3.253402,0 0,0 0,0.0314 z"
             id="path3502" />
          <path
             inkscape:connector-curvature="0"
             d="m 47.005836,74.980739 -3.256234,0 c -0.452586,0.05915 -0.905968,-0.1032 -1.239122,-0.443708 -0.333154,-0.340509 -0.512169,-0.824517 -0.48926,-1.322827 -0.04774,-2.487783 0,-4.975566 0,-7.463349 -0.0068,-0.480061 0.17178,-0.940974 0.491759,-1.269347 0.319979,-0.328373 0.751673,-0.493725 1.188878,-0.455376 2.170822,-0.03484 4.344827,-0.03484 6.522016,0 0.472272,-0.04107 0.937367,0.145749 1.273283,0.511449 0.335915,0.3657 0.509127,0.873785 0.474197,1.390973 0.0382,2.411129 0.0382,4.825741 0,7.243838 0.03439,0.516774 -0.147919,1.022596 -0.495376,1.374464 -0.347457,0.351868 -0.822305,0.511543 -1.290301,0.433883 l -3.160742,0 0,0 -0.0191,0 z"
             id="path3504" />
          <path
             inkscape:connector-curvature="0"
             d="m 28.027477,40.476294 0,-3.361346 c -0.100837,-0.57094 0.0793,-1.15552 0.483982,-1.570642 0.404686,-0.415122 0.984434,-0.610022 1.557661,-0.523654 l 6.931117,0 c 0.533848,-0.08352 1.075865,0.08916 1.463057,0.466105 0.387192,0.376949 0.574389,0.914194 0.505296,1.450176 0.04188,2.380517 0.04188,4.764524 0,7.152022 0.05866,0.500698 -0.111212,1.0012 -0.462517,1.362711 -0.351305,0.361511 -0.846693,0.545598 -1.348787,0.501212 -2.449971,0.06283 -4.892963,0.06283 -7.328975,0 -0.501477,0.0229 -0.987337,-0.177548 -1.326825,-0.547401 -0.339488,-0.369853 -0.497726,-0.871112 -0.432129,-1.36888 l 0,-3.570775 0,0 -0.04188,0.01047 z"
             id="path3506" />
          <path
             inkscape:connector-curvature="0"
             d="m 57.010724,40.419111 0,-3.465806 c -0.0567,-0.534203 0.113533,-1.067352 0.461584,-1.4456 0.348051,-0.378248 0.835193,-0.55951 1.320853,-0.491481 l 6.405338,0 c 0.487748,-0.07391 0.978859,0.107362 1.327015,0.489814 0.348157,0.382453 0.513175,0.921942 0.445891,1.457738 0.03813,2.345439 0.03813,4.690879 0,7.036318 0.05923,0.536622 -0.109426,1.073362 -0.457378,1.45559 -0.347952,0.382228 -0.83656,0.567497 -1.32506,0.502433 -2.135112,0.05584 -4.270225,0.05584 -6.405337,0 -1.239128,0 -1.744311,-0.680596 -1.772906,-2.094142 -0.01906,-1.141308 0,-2.293086 0,-3.444864 l 0,0 z"
             id="path3508" />
          <path
             inkscape:connector-curvature="0"
             d="m 46.975768,35.019872 3.155132,0 c 0.502034,-0.07957 1.012165,0.08253 1.376247,0.437307 0.364081,0.354779 0.539402,0.86062 0.472985,1.364674 l 0,6.311699 c 0.07955,0.502148 -0.08251,1.012395 -0.437207,1.37656 -0.354698,0.364164 -0.860425,0.539524 -1.364364,0.473092 l -6.310265,0 c -0.501549,0.07275 -1.008243,-0.09339 -1.369397,-0.449008 -0.361154,-0.355621 -0.535172,-0.859766 -0.470303,-1.362507 -0.03813,-2.13568 -0.03813,-4.271361 0,-6.407042 -0.05483,-0.486127 0.118187,-0.970291 0.468662,-1.311521 0.350474,-0.341231 0.839015,-0.501172 1.323377,-0.433254 1.048534,-0.0286 2.106599,0 3.155133,0 l 0,0 z"
             id="path3510" />
          <rect
             id="Rectangle-path"
             x="28"
             y="9"
             width="23"
             height="6" />
          <path
             inkscape:connector-curvature="0"
             d="m 66.46,9.0099987 -3.46,0 0,5.9992313 3.46,0 c 3.15,0 5.54,2.069734 5.54,5.21933 l 0,54.553006 c 0,3.149597 -2.38,6.219203 -5.54,6.219203 l -54.56,0 c -3.15,0 -5.9,-3.069606 -5.9,-6.219203 L 6,20.218562 c 0,-3.149597 2.75,-5.219331 5.9,-5.219331 l 4.1,0 L 16,9 11.9,9 C 5.44,9 0,13.75939 0,20.218562 L 0,74.781566 C 0,81.240738 5.44,87 11.9,87 l 54.56,0 C 72.92,87 78,81.240738 78,74.781566 L 78,20.218562 C 78,13.75939 72.92,9.0099987 66.46,9.0099987 l 0,0 z"
             id="path3513" />
        </g>
      </g>
    </g>
    <g
       style="fill:none;fill-rule:evenodd;stroke:none;stroke-width:1"
       id="Symbols-3"
       transform="translate(11.961944,111.38228)">
      <g
         style="fill:#828282"
         id="ic-2-08"
         transform="translate(0,-1)">
        <g
           id="Слой_1-6">
          <path
             inkscape:connector-curvature="0"
             d="m 34.044338,96 0,0 c -0.834524,-0.0034 -1.62659,-0.369314 -2.171346,-1.003059 -1.2908,-1.52465 -2.5816,-3.009177 -3.852388,-4.513766 l -0.13008,-0.120367 C 22.557218,84.143842 17.534105,78.326099 13.361519,71.54542 9.449094,65.206086 4.6060923,56.710176 1.8243682,47.231268 -0.05414525,41.250173 -0.48967731,34.907533 0.55358059,28.724828 2.9450628,15.203592 14.49222,3.7486573 27.960567,1.501805 29.944597,1.1690371 31.952679,1.0012891 33.964288,1.0002755 48.714811,0.9408829 61.795065,10.490645 66.264307,24.582194 c 1.938907,6.077437 2.259698,12.557315 0.930577,18.797327 -1.731073,9.218113 -5.58346,18.285767 -12.137523,28.537031 -3.856911,6.005336 -8.272697,11.630882 -13.188173,16.801239 -1.741079,1.835598 -3.442134,3.771502 -5.083151,5.637192 l -0.58036,0.662019 C 35.659524,95.64066 34.872191,95.998746 34.044338,96 l 0,0 z M 33.964964,7.0002566 c -1.662443,0.0034 -3.321823,0.1444316 -4.961529,0.4216958 C 17.635289,9.5686895 8.7055471,18.504584 6.4582456,29.982675 5.5818753,35.299031 5.966194,40.749986 7.5795512,45.886629 10.1397,54.692038 14.704307,62.75446 18.395685,68.788725 22.295447,75.174403 27.127976,80.837175 32.287967,86.8614 L 32.407044,86.991925 34.123733,89 c 1.170921,-1.33537 2.351765,-2.660699 3.582224,-4.01615 C 42.312401,80.087695 46.452115,74.762791 50.070088,69.079896 56.152923,59.461216 59.725224,51.007221 61.30299,42.563265 62.434619,37.285228 62.184926,31.799716 60.578607,26.649271 56.91582,14.910359 46.13106,6.9479057 33.964964,7.0002566 l 0,0 z"
             id="Shape-7" />
          <path
             inkscape:connector-curvature="0"
             d="m 49,35.948945 c -0.02824,-8.261803 -6.731733,-14.94538 -14.993485,-14.948944 -8.261753,-0.0036 -14.971007,6.67423 -15.006375,14.936005 -0.03537,8.261776 6.616469,14.996767 14.877949,15.063939 4.001566,0.01079 7.843376,-1.569204 10.679579,-4.392108 C 47.393872,43.784933 48.991931,39.950566 49,35.948945 l 0,0 z"
             id="path3730" />
        </g>
      </g>
    </g>
    <g
       style="fill:none;fill-rule:evenodd;stroke:none;stroke-width:1"
       id="Symbols-5"
       transform="translate(3.961941,220.93308)">
      <g
         style="fill:#828282"
         id="ic-3-09"
         transform="translate(-1,0)">
        <g
           id="Слой_1-3">
          <path
             inkscape:connector-curvature="0"
             d="m 21.932606,76.906151 c -2.413339,2.429396 -6.320018,2.429396 -8.733357,0 L 9.0310557,72.690156 c -2.4075694,-2.435218 -2.4075694,-6.377314 0,-8.812532 L 39.528336,33.133906 c 2.413339,-2.429396 6.320019,-2.429396 8.733357,0 l 4.168194,4.205981 c 3.106296,3.134457 7.770703,-1.001424 4.396451,-4.436309 L 52.697842,28.65754 c -4.842573,-4.87672 -12.683687,-4.87672 -17.52626,0 L 4.62468,59.45133 c -4.83290666,4.886474 -4.83290666,12.798674 0,17.685149 l 4.1681932,4.205981 c 4.8425728,4.87672 12.6836878,4.87672 17.5262598,0 L 39.121441,68.424089 c 2.848265,-2.874087 -1.200836,-7.660894 -4.48577,-4.34618 L 21.932606,76.906151 Z"
             id="Shape-5" />
          <path
             inkscape:connector-curvature="0"
             d="m 64.077318,8.1057806 c 2.413339,-2.4269644 6.320018,-2.4269644 8.733357,0 l 4.168194,4.2017714 c 2.407569,2.43278 2.407569,6.370932 0,8.803712 L 46.471664,51.914251 c -2.413339,2.426965 -6.320019,2.426965 -8.733358,0 L 33.570113,47.71248 c -3.106296,-3.13132 -7.770703,1.000422 -4.396451,4.431868 l 4.168193,4.201772 c 4.842573,4.87184 12.683687,4.87184 17.52626,0 L 81.37532,25.553137 c 4.832907,-4.881584 4.832907,-12.785865 0,-17.6674492 L 77.207127,3.6839162 C 74.880702,1.3274882 71.719217,0.00187921 68.421247,1.996451e-6 65.123277,-0.00187521 61.960308,1.3201339 59.631245,3.673912 L 46.828938,16.579353 c -2.848266,2.871211 1.200836,7.653227 4.485769,4.341831 L 64.077318,8.1057806 Z"
             id="path3830" />
        </g>
      </g>
    </g>
  </g>
</svg>
