<svg viewBox="0 0 55 42.38" xmlns="http://www.w3.org/2000/svg"><path d="m50.39 5.86a5 5 0 1 1 -5-5 5 5 0 0 1 5 5zm-35.39 1.42a4.8 4.8 0 0 1 4.11 2.21l4.17-2.59a9.69 9.69 0 0 0 -8.28-4.46 9.69 9.69 0 0 0 -8.35 4.46l4.21 2.62a4.83 4.83 0 0 1 4.14-2.24zm15.11 34.23a28 28 0 0 0 3.22-.19 28.9 28.9 0 0 0 20.74-12.91l-4.18-2.7a23.63 23.63 0 0 1 -38.89 1.29 9.69 9.69 0 0 0 1.4-7.52l-4.85 1.1a4.81 4.81 0 0 1 -1.3 4.42 4.8 4.8 0 0 1 -4.46 1.34l-1.1 4.85a9.64 9.64 0 0 0 6.66-.89 28.93 28.93 0 0 0 22.76 11.21zm0 0" fill="#cacaca"/></svg>