<svg id="Layer_1" data-name="Layer 1" xmlns="http://www.w3.org/2000/svg" viewBox="0 0 55 42.38"><defs><style>.cls-1{fill:#cacaca;}</style></defs><title>it61_smile</title><path class="cls-1" d="M50.39,5.86a5,5,0,1,1-5-5,5,5,0,0,1,5,5h0Zm0,0"/><path class="cls-1" d="M15,7.28a4.8,4.8,0,0,1,4.11,2.21L23.28,6.9A9.69,9.69,0,0,0,15,2.44,9.69,9.69,0,0,0,6.65,6.9l4.21,2.62A4.83,4.83,0,0,1,15,7.28h0Zm0,0"/><path class="cls-1" d="M30.11,41.51a28,28,0,0,0,3.22-.19A28.9,28.9,0,0,0,54.07,28.41l-4.18-2.7A23.63,23.63,0,0,1,11,27a9.69,9.69,0,0,0,1.4-7.52l-4.85,1.1A4.81,4.81,0,0,1,6.25,25a4.8,4.8,0,0,1-4.46,1.34l-1.1,4.85a9.64,9.64,0,0,0,6.66-.89A28.93,28.93,0,0,0,30.11,41.51h0Zm0,0"/></svg>