<svg id="SvgjsSvg1000" xmlns="http://www.w3.org/2000/svg" version="1.1" xmlns:xlink="http://www.w3.org/1999/xlink" xmlns:svgjs="http://svgjs.com/svgjs" width="293" height="80"><defs id="SvgjsDefs1001"></defs><path id="SvgjsPath1007" d="M79.6502 145C69.2003 145 59.37649999999999 140.93 51.9817 133.497C44.581999999999994 126.06000000000002 40.5034 116.061 40.49679999999999 105.53500000000001C40.483599999999996 83.80720000000001 58.0372 65.99990000000001 79.6268 65.99990000000001C79.6349 65.99990000000001 79.6446 65.99990000000001 79.6527 65.99990000000001C85.8021 65.99990000000001 91.68849999999999 67.51150000000001 97.151 70.26240000000001L95.70819999999999 73.31470000000002C90.698 70.79140000000001 85.29589999999999 69.66210000000001 79.6527 69.66210000000001C79.6446 69.66210000000001 79.6369 69.66210000000001 79.6288 69.66210000000001C59.817099999999996 69.66210000000001 43.7093 85.81420000000001 43.7215 105.75200000000001C43.7276 115.41100000000002 47.4701 124.47500000000001 54.2607 131.3C61.0451 138.12 70.0623 141.86100000000002 79.6502 141.86100000000002C79.6583 141.86100000000002 79.6649 141.86100000000002 79.673 141.86100000000002C89.2704 141.86100000000002 98.2907 138.05700000000002 105.07300000000001 131.223C111.855 124.38900000000001 115.58600000000001 115.29000000000002 115.58000000000001 105.632C115.57700000000001 100.44200000000001 114.50600000000001 95.42590000000001 112.39500000000001 90.7382L115.33200000000001 89.39460000000001C117.63300000000001 94.50550000000001 118.802 99.96220000000001 118.805 105.61600000000001C118.81200000000001 116.14200000000001 114.745 126.01700000000001 107.355 133.464C99.96390000000001 140.911 90.1335 145 79.67500000000001 145C79.66740000000001 145 79.6577 145 79.65020000000001 145ZM96.5626 95.2748L87.7693 95.28L87.7845 119.881L84.0826 119.884L84.0674 95.2825L75.2928 95.2881L75.2913 92.3571L96.561 92.3437ZM239.962 117.891L239.962 129.532L243.93099999999998 129.532L243.93099999999998 117.891L247.885 117.891L247.885 129.532L251.85399999999998 129.532L251.85399999999998 117.891L255.795 117.891L255.795 129.464L258.805 129.464L258.805 137.47899999999998L254.864 137.47899999999998L254.864 132.588L236.02100000000002 132.588L236.02100000000002 117.89099999999999ZM147.356 92.0326L147.356 99.2048L143.415 99.2048L143.415 79.42670000000001L151.243 79.42670000000001C153.50199999999998 79.42670000000001 155.279 80.00630000000001 156.575 81.16550000000001C157.87099999999998 82.32490000000001 158.51899999999998 83.85060000000001 158.51899999999998 85.7433C158.51899999999998 87.6361 157.87099999999998 89.1575 156.575 90.3074C155.279 91.4575 153.50199999999998 92.0326 151.243 92.0326ZM165.106 115.867L159.545 115.867L159.545 132.588L155.60299999999998 132.588L155.60299999999998 115.86699999999999L150.069 115.86699999999999L150.069 112.80999999999999L165.106 112.80999999999999ZM227.45 118.706C229.50199999999998 118.706 231.10799999999998 119.342 232.268 120.614C233.429 121.887 234.01 123.533 234.01 125.552L234.01 125.837C234.01 127.92 233.39999999999998 129.614 232.18099999999998 130.918C230.96099999999998 132.222 229.27599999999998 132.874 227.12599999999998 132.874C224.96599999999998 132.874 223.277 132.222 222.05799999999996 130.918C220.83799999999997 129.614 220.22899999999996 127.92 220.22899999999996 125.837L220.22899999999996 123.86800000000001C220.23799999999994 120.644 220.86299999999994 118.15800000000002 222.10499999999996 116.41000000000001C223.34699999999995 114.662 224.97099999999998 113.58900000000001 226.97799999999995 113.19100000000002C227.84999999999997 113.04600000000002 228.49599999999995 112.85300000000002 228.91399999999996 112.61400000000002C229.33299999999997 112.37300000000002 229.54199999999994 111.98200000000001 229.54199999999994 111.43800000000002L232.59199999999996 111.43800000000002L232.63299999999995 111.52000000000001C232.66899999999995 113.27700000000002 232.26799999999994 114.44000000000001 231.43199999999996 115.01100000000001C230.59499999999997 115.581 229.16899999999995 116.025 227.15299999999996 116.34200000000001C226.14499999999995 116.51400000000001 225.34199999999996 116.912 224.74399999999997 117.53800000000001C224.14499999999998 118.162 223.75999999999996 119.03200000000001 223.58999999999997 120.14600000000002L223.64399999999998 120.21400000000001C224.13799999999998 119.77000000000001 224.71699999999998 119.40800000000002 225.378 119.12700000000001C226.039 118.846 226.73 118.706 227.45 118.706ZM188.793 125.104C188.793 122.912 189.401 121.117 190.616 119.718C191.83 118.319 193.513 117.619 195.66400000000002 117.619C197.823 117.619 199.51500000000001 118.316 200.739 119.711C201.96200000000002 121.106 202.574 122.90299999999999 202.574 125.104L202.574 125.389C202.574 127.59899999999999 201.965 129.399 200.745 130.789C199.526 132.17899999999997 197.841 132.874 195.691 132.874C193.531 132.874 191.841 132.179 190.622 130.789C189.40300000000002 129.399 188.793 127.59899999999999 188.793 125.38899999999998ZM204.396 125.104C204.396 122.912 205.004 121.117 206.218 119.718C207.433 118.319 209.11599999999999 117.619 211.266 117.619C213.426 117.619 215.117 118.316 216.34099999999998 119.711C217.56499999999997 121.106 218.177 122.90299999999999 218.177 125.104L218.177 125.389C218.177 127.59899999999999 217.56699999999998 129.399 216.34799999999998 130.789C215.129 132.17899999999997 213.444 132.874 211.29299999999998 132.874C209.134 132.874 207.444 132.179 206.22499999999997 130.789C205.00599999999997 129.399 204.39599999999996 127.59899999999999 204.39599999999996 125.38899999999998ZM160.287 91.7203C160.287 89.5287 160.894 87.7333 162.109 86.3342C163.324 84.9348 165.007 84.2353 167.157 84.2353C169.317 84.2353 171.008 84.9328 172.232 86.3274C173.456 87.72189999999999 174.068 89.51939999999999 174.068 91.7203L174.068 92.00529999999999C174.068 94.21499999999999 173.458 96.0148 172.239 97.40499999999999C171.019 98.79529999999998 169.334 99.48999999999998 167.184 99.48999999999998C165.024 99.48999999999998 163.335 98.79529999999998 162.11599999999999 97.40499999999999C160.896 96.01479999999998 160.28699999999998 94.21499999999999 160.28699999999998 92.00529999999999ZM204.302 91.7203C204.302 89.5287 204.909 87.7333 206.124 86.3342C207.338 84.9348 209.021 84.2353 211.172 84.2353C213.331 84.2353 215.023 84.9328 216.24699999999999 86.3274C217.47 87.72189999999999 218.083 89.51939999999999 218.083 91.7203L218.083 92.00529999999999C218.083 94.21499999999999 217.47299999999998 96.0148 216.254 97.40499999999999C215.034 98.79529999999998 213.349 99.48999999999998 211.19899999999998 99.48999999999998C209.039 99.48999999999998 207.35 98.79529999999998 206.13099999999997 97.40499999999999C204.91099999999997 96.01479999999998 204.30199999999996 94.21499999999999 204.30199999999996 92.00529999999999ZM264.865 91.7203C264.865 89.5287 265.47200000000004 87.7333 266.687 86.3342C267.902 84.9348 269.58500000000004 84.2353 271.735 84.2353C273.89500000000004 84.2353 275.586 84.9328 276.81 86.3274C278.034 87.72189999999999 278.646 89.51939999999999 278.646 91.7203L278.646 92.00529999999999C278.646 94.21499999999999 278.036 96.0148 276.817 97.40499999999999C275.597 98.79529999999998 273.91200000000003 99.48999999999998 271.762 99.48999999999998C269.602 99.48999999999998 267.913 98.79529999999998 266.694 97.40499999999999C265.474 96.01479999999998 264.865 94.21499999999999 264.865 92.00529999999999ZM256.105 93.7034L254.59300000000002 93.7034L254.59300000000002 99.2048L250.65200000000002 99.2048L250.65200000000002 84.50710000000001L254.59300000000002 84.50710000000001L254.59300000000002 90.10360000000001L255.97000000000003 90.10360000000001L259.115 84.50710000000001L264.096 84.50710000000001L259.331 91.43480000000001L264.52700000000004 99.2048L259.27700000000004 99.2048ZM267.308 132.874C265.202 132.874 263.52 132.194 262.26 130.83599999999998C261 129.47799999999998 260.37 127.75299999999999 260.37 125.66099999999999L260.37 125.11699999999999C260.37 122.93499999999999 260.966 121.13699999999999 262.159 119.725C263.351 118.312 264.95099999999996 117.61 266.957 117.619C268.928 117.619 270.45799999999997 118.217 271.546 119.412C272.635 120.607 273.179 122.224 273.179 124.262L273.179 126.421L264.46 126.421L264.433 126.50200000000001C264.505 127.468 264.827 128.261 265.39799999999997 128.88400000000001C265.969 129.50600000000003 266.746 129.818 267.72599999999994 129.818C268.59899999999993 129.818 269.32399999999996 129.729 269.8999999999999 129.55300000000003C270.47599999999994 129.37600000000003 271.10599999999994 129.09700000000004 271.78899999999993 128.717L272.8549999999999 131.168C272.2619999999999 131.66 271.4829999999999 132.067 270.5209999999999 132.389C269.5579999999999 132.71200000000002 268.4869999999999 132.87400000000002 267.3079999999999 132.87400000000002ZM287.541 99.49C285.435 99.49 283.753 98.8108 282.493 97.4525C281.233 96.094 280.603 94.369 280.603 92.2771L280.603 91.7337C280.603 89.5515 281.199 87.7537 282.392 86.3411C283.58299999999997 84.928 285.183 84.2264 287.19 84.2353C289.161 84.2353 290.69 84.8329 291.779 86.0285C292.868 87.2239 293.412 88.84039999999999 293.412 90.87769999999999L293.412 93.03779999999999L284.693 93.03779999999999L284.666 93.1188C284.738 94.0842 285.05899999999997 94.8779 285.631 95.5003C286.202 96.1225 286.97799999999995 96.43379999999999 287.95899999999995 96.43379999999999C288.83199999999994 96.43379999999999 289.5559999999999 96.34559999999999 290.13199999999995 96.1686C290.70799999999997 95.9921 291.33799999999997 95.7137 292.02199999999993 95.3333L293.0879999999999 97.7845C292.4949999999999 98.27579999999999 291.7159999999999 98.6828 290.75299999999993 99.00569999999999C289.7899999999999 99.32839999999999 288.7199999999999 99.49 287.54099999999994 99.49ZM203.168 87.5635L198.49800000000002 87.5635L198.49800000000002 99.2048L194.543 99.2048L194.543 87.5635L189.941 87.5635L189.941 84.50710000000001L203.168 84.50710000000001ZM181.221 129.818C181.923 129.818 182.485 129.61100000000002 182.90800000000002 129.199C183.33100000000002 128.787 183.542 128.23700000000002 183.542 127.549L187.12 127.549L187.16 127.63000000000001C187.196 129.116 186.64 130.36100000000002 185.493 131.366C184.346 132.371 182.922 132.87400000000002 181.221 132.87400000000002C179.044 132.87400000000002 177.365 132.181 176.186 130.79500000000002C175.008 129.41000000000003 174.418 127.63000000000001 174.418 125.45700000000002L174.418 125.04900000000002C174.418 122.88500000000002 175.006 121.10600000000002 176.18 119.71100000000003C177.354 118.31600000000003 179.03 117.61900000000003 181.208 117.61900000000003C183.007 117.61900000000003 184.458 118.13500000000003 185.561 119.16800000000003C186.663 120.20000000000003 187.196 121.55800000000004 187.16 123.24300000000004L187.133 123.32400000000004L183.542 123.32400000000004C183.542 122.56400000000004 183.335 121.93200000000004 182.922 121.42900000000004C182.508 120.92700000000005 181.936 120.67500000000004 181.208 120.67500000000004C180.163 120.67500000000004 179.428 121.08200000000004 179.001 121.89600000000004C178.573 122.71000000000004 178.36 123.75900000000004 178.36 125.04300000000005L178.36 125.45000000000005C178.36 126.76100000000005 178.573 127.81700000000005 179.001 128.61700000000005C179.428 129.41700000000006 180.169 129.81800000000004 181.221 129.81800000000004ZM281.602 129.818C282.304 129.818 282.866 129.61100000000002 283.289 129.199C283.712 128.787 283.923 128.23700000000002 283.923 127.549L287.5 127.549L287.541 127.63000000000001C287.576 129.116 287.021 130.36100000000002 285.874 131.366C284.726 132.371 283.302 132.87400000000002 281.60200000000003 132.87400000000002C279.42400000000004 132.87400000000002 277.74600000000004 132.181 276.567 130.79500000000002C275.38800000000003 129.41000000000003 274.79900000000004 127.63000000000001 274.79900000000004 125.45700000000002L274.79900000000004 125.04900000000002C274.79900000000004 122.88500000000002 275.386 121.10600000000002 276.56000000000006 119.71100000000003C277.73500000000007 118.31600000000003 279.4100000000001 117.61900000000003 281.5880000000001 117.61900000000003C283.3880000000001 117.61900000000003 284.83900000000006 118.13500000000003 285.9410000000001 119.16800000000003C287.04300000000006 120.20000000000003 287.5760000000001 121.55800000000004 287.5410000000001 123.24300000000004L287.5140000000001 123.32400000000004L283.9230000000001 123.32400000000004C283.9230000000001 122.56400000000004 283.7160000000001 121.93200000000004 283.30200000000013 121.42900000000004C282.88800000000015 120.92700000000005 282.3170000000001 120.67500000000004 281.58800000000014 120.67500000000004C280.54400000000015 120.67500000000004 279.80800000000016 121.08200000000004 279.3820000000001 121.89600000000004C278.9540000000001 122.71000000000004 278.7400000000001 123.75900000000004 278.7400000000001 125.04300000000005L278.7400000000001 125.45000000000005C278.7400000000001 126.76100000000005 278.9540000000001 127.81700000000005 279.3820000000001 128.61700000000005C279.8080000000001 129.41700000000006 280.5490000000001 129.81800000000004 281.60200000000015 129.81800000000004ZM242.243 96.4338C242.945 96.4338 243.507 96.2278 243.93099999999998 95.8156C244.35399999999998 95.4038 244.56499999999997 94.8536 244.56499999999997 94.1652L248.14199999999997 94.1652L248.18199999999996 94.2467C248.21799999999996 95.73190000000001 247.66199999999995 96.9773 246.51499999999996 97.9825C245.36799999999997 98.9877 243.94399999999996 99.49 242.24299999999997 99.49C240.06599999999997 99.49 238.38699999999997 98.79729999999999 237.20899999999997 97.4118C236.02999999999997 96.026 235.43999999999997 94.2467 235.43999999999997 92.0733L235.43999999999997 91.6657C235.43999999999997 89.5014 236.02799999999996 87.7219 237.20199999999997 86.3274C238.37599999999998 84.9328 240.05199999999996 84.2353 242.22999999999996 84.2353C244.02999999999997 84.2353 245.47999999999996 84.7515 246.58299999999997 85.78399999999999C247.68499999999997 86.8163 248.21799999999996 88.17479999999999 248.18199999999996 89.859L248.15499999999997 89.9405L244.56499999999997 89.9405C244.56499999999997 89.18 244.35799999999998 88.5483 243.94399999999996 88.0456C243.52999999999997 87.5431 242.95799999999997 87.29169999999999 242.22999999999996 87.29169999999999C241.18599999999995 87.29169999999999 240.44999999999996 87.69869999999999 240.02299999999997 88.51249999999999C239.59599999999998 89.32639999999999 239.38199999999998 90.37519999999999 239.38199999999998 91.65929999999999L239.38199999999998 92.06629999999998C239.38199999999998 93.37739999999998 239.59599999999998 94.43329999999999 240.02299999999997 95.23349999999998C240.44999999999996 96.03369999999998 241.19099999999997 96.43379999999998 242.24299999999997 96.43379999999998ZM182.625 96.4338C183.327 96.4338 183.889 96.2278 184.312 95.8156C184.735 95.4038 184.946 94.8536 184.946 94.1652L188.523 94.1652L188.564 94.2467C188.599 95.73190000000001 188.04399999999998 96.9773 186.897 97.9825C185.749 98.9877 184.325 99.49 182.625 99.49C180.447 99.49 178.769 98.79729999999999 177.59 97.4118C176.411 96.026 175.822 94.2467 175.822 92.0733L175.822 91.6657C175.822 89.5014 176.409 87.7219 177.583 86.3274C178.758 84.9328 180.434 84.2353 182.611 84.2353C184.411 84.2353 185.862 84.7515 186.964 85.78399999999999C188.066 86.8163 188.599 88.17479999999999 188.564 89.859L188.537 89.9405L184.946 89.9405C184.946 89.18 184.739 88.5483 184.325 88.0456C183.91199999999998 87.5431 183.33999999999997 87.29169999999999 182.611 87.29169999999999C181.56699999999998 87.29169999999999 180.832 87.69869999999999 180.405 88.51249999999999C179.977 89.32639999999999 179.763 90.37519999999999 179.763 91.65929999999999L179.763 92.06629999999998C179.763 93.37739999999998 179.977 94.43329999999999 180.405 95.23349999999998C180.832 96.03369999999998 181.572 96.43379999999998 182.625 96.43379999999998ZM302.145 120.947L297.47499999999997 120.947L297.47499999999997 132.588L293.52 132.588L293.52 120.94699999999999L288.918 120.94699999999999L288.918 117.89099999999999L302.145 117.89099999999999ZM220.715 99.2048L220.715 84.50710000000001L226.816 84.50710000000001C228.75900000000001 84.50710000000001 230.273 84.85130000000001 231.358 85.53920000000001C232.442 86.2278 232.984 87.251 232.984 88.6093C232.984 89.29780000000001 232.757 89.90910000000001 232.30200000000002 90.443C231.848 90.9776 231.20200000000003 91.3852 230.365 91.6657C231.472 91.8831 232.311 92.293 232.883 92.8952C233.454 93.4975 233.74 94.2014 233.74 95.0073C233.74 96.3931 233.22400000000002 97.4391 232.19400000000002 98.1454C231.16400000000002 98.8517 229.686 99.20479999999999 227.76000000000002 99.20479999999999ZM304.426 132.588L304.426 117.89099999999999L310.527 117.89099999999999C312.471 117.89099999999999 313.984 118.23499999999999 315.06899999999996 118.92299999999999C316.15299999999996 119.61099999999999 316.69499999999994 120.63499999999999 316.69499999999994 121.99299999999998C316.69499999999994 122.68199999999997 316.46799999999996 123.29299999999998 316.01399999999995 123.82699999999998C315.55899999999997 124.36099999999999 314.91399999999993 124.76899999999998 314.07699999999994 125.04899999999998C315.18399999999997 125.26699999999998 316.02199999999993 125.67699999999998 316.59399999999994 126.27899999999998C317.16499999999996 126.88099999999999 317.45099999999996 127.58499999999998 317.45099999999996 128.391C317.45099999999996 129.777 316.936 130.82299999999998 315.90599999999995 131.529C314.87499999999994 132.23499999999999 313.39699999999993 132.588 311.4719999999999 132.588ZM99.7776 79.6125C99.7771 78.6639 100.07600000000001 77.8309 100.46600000000001 77.0671L103.75000000000001 70.7261L106.85300000000001 70.7244L104.855 74.5427C107.935 74.5407 110.075 76.85289999999999 110.07600000000001 79.5598C110.078 82.40509999999999 107.804 84.6738 104.93100000000001 84.6756C102.05700000000002 84.6773 99.7797 82.4351 99.7776 79.6125ZM71.6255 119.892L67.9053 119.89399999999999L67.8885 92.36149999999999L71.6087 92.35919999999999ZM144 133L144 113L148 113L148 133ZM112.464 73.4276L110.763 73.4284L110.76100000000001 70.7217L115.358 70.7188L115.367 84.4148L112.47 84.4166ZM192.721 125.382C192.721 126.72 192.955 127.79400000000001 193.423 128.604C193.891 129.413 194.647 129.818 195.691 129.818C196.707 129.818 197.452 129.411 197.925 128.597C198.39700000000002 127.78300000000002 198.633 126.71100000000001 198.633 125.382L198.633 125.09700000000001C198.633 123.795 198.395 122.733 197.918 121.91000000000001C197.441 121.08700000000002 196.69 120.67500000000001 195.66400000000002 120.67500000000001C194.64700000000002 120.67500000000001 193.90200000000002 121.08900000000001 193.43 121.91700000000002C192.957 122.74400000000001 192.721 123.80400000000002 192.721 125.09700000000002ZM208.324 125.382C208.324 126.72 208.55800000000002 127.79400000000001 209.026 128.604C209.49300000000002 129.413 210.24900000000002 129.818 211.293 129.818C212.31 129.818 213.055 129.411 213.52700000000002 128.597C214.00000000000003 127.78300000000002 214.23600000000002 126.71100000000001 214.23600000000002 125.382L214.23600000000002 125.09700000000001C214.23600000000002 123.795 213.997 122.733 213.52 121.91000000000001C213.044 121.08700000000002 212.292 120.67500000000001 211.26600000000002 120.67500000000001C210.24900000000002 120.67500000000001 209.50500000000002 121.08900000000001 209.032 121.91700000000002C208.56 122.74400000000001 208.324 123.80400000000002 208.324 125.09700000000002ZM208.229 91.9985C208.229 93.33670000000001 208.46300000000002 94.4106 208.931 95.22000000000001C209.399 96.02910000000001 210.155 96.43380000000002 211.199 96.43380000000002C212.216 96.43380000000002 212.96 96.02680000000002 213.43300000000002 95.21300000000002C213.90500000000003 94.39940000000003 214.14100000000002 93.32780000000002 214.14100000000002 91.99850000000002L214.14100000000002 91.71340000000002C214.14100000000002 90.41160000000002 213.90300000000002 89.34910000000002 213.42600000000002 88.52620000000002C212.949 87.70350000000002 212.198 87.29170000000002 211.17200000000003 87.29170000000002C210.15500000000003 87.29170000000002 209.41100000000003 87.70560000000002 208.93800000000002 88.53300000000002C208.465 89.36030000000001 208.229 90.42050000000002 208.229 91.71340000000002ZM164.215 91.9985C164.215 93.33670000000001 164.449 94.4106 164.917 95.22000000000001C165.38400000000001 96.02910000000001 166.14000000000001 96.43380000000002 167.184 96.43380000000002C168.201 96.43380000000002 168.946 96.02680000000002 169.418 95.21300000000002C169.89000000000001 94.39940000000003 170.126 93.32780000000002 170.126 91.99850000000002L170.126 91.71340000000002C170.126 90.41160000000002 169.888 89.34910000000002 169.411 88.52620000000002C168.934 87.70350000000002 168.183 87.29170000000002 167.157 87.29170000000002C166.14000000000001 87.29170000000002 165.39600000000002 87.70560000000002 164.923 88.53300000000002C164.451 89.36030000000001 164.215 90.42050000000002 164.215 91.71340000000002ZM268.793 91.9985C268.793 93.33670000000001 269.027 94.4106 269.495 95.22000000000001C269.962 96.02910000000001 270.718 96.43380000000002 271.762 96.43380000000002C272.779 96.43380000000002 273.524 96.02680000000002 273.996 95.21300000000002C274.46799999999996 94.39940000000003 274.704 93.32780000000002 274.704 91.99850000000002L274.704 91.71340000000002C274.704 90.41160000000002 274.466 89.34910000000002 273.98900000000003 88.52620000000002C273.51200000000006 87.70350000000002 272.761 87.29170000000002 271.735 87.29170000000002C270.718 87.29170000000002 269.974 87.70560000000002 269.50100000000003 88.53300000000002C269.02900000000005 89.36030000000001 268.793 90.42050000000002 268.793 91.71340000000002ZM227.099 121.762C226.082 121.762 225.34 122.115 224.87199999999999 122.82000000000001C224.404 123.525 224.17 124.43400000000001 224.17 125.545L224.17 125.831C224.17 127.033 224.404 127.998 224.87199999999999 128.726C225.33999999999997 129.454 226.09099999999998 129.818 227.12599999999998 129.818C228.14299999999997 129.818 228.88699999999997 129.454 229.35999999999999 128.726C229.832 127.998 230.06799999999998 127.033 230.06799999999998 125.831L230.06799999999998 125.545C230.06799999999998 124.434 229.82999999999998 123.525 229.35299999999998 122.82000000000001C228.87599999999998 122.11500000000001 228.12499999999997 121.762 227.099 121.762ZM147.356 88.976L151.243 88.976C152.341 88.976 153.173 88.6752 153.74 88.0729C154.30700000000002 87.47070000000001 154.591 86.70320000000001 154.591 85.7703C154.591 84.8195 154.309 84.03420000000001 153.747 83.4137C153.185 82.7933 152.35000000000002 82.48310000000001 151.24300000000002 82.48310000000001L147.35600000000002 82.48310000000001ZM164 126L164 123L172 123L172 126ZM107.318 79.5846C107.318 78.2658 106.25999999999999 77.2254 104.926 77.22619999999999C103.616 77.22729999999999 102.559 78.2687 102.56 79.58729999999998C102.561 80.90589999999999 103.61800000000001 81.99319999999999 104.929 81.99209999999998C106.262 81.99109999999997 107.319 80.90319999999998 107.318 79.58459999999998ZM308.367 126.462L308.367 129.573L311.47200000000004 129.573C312.165 129.573 312.677 129.44400000000002 313.01000000000005 129.186C313.3430000000001 128.928 313.51000000000005 128.54500000000002 313.51000000000005 128.038C313.51000000000005 127.531 313.35 127.141 313.03100000000006 126.87C312.71100000000007 126.598 312.19200000000006 126.462 311.47200000000004 126.462ZM224.656 93.0785L224.656 96.18910000000001L227.76000000000002 96.18910000000001C228.45300000000003 96.18910000000001 228.966 96.05990000000001 229.299 95.80190000000002C229.632 95.54400000000001 229.799 95.16150000000002 229.799 94.65410000000001C229.799 94.14700000000002 229.639 93.75760000000001 229.31900000000002 93.48600000000002C229.00000000000003 93.21430000000002 228.48000000000002 93.07850000000002 227.76000000000002 93.07850000000002ZM266.957 120.675C266.228 120.675 265.653 120.956 265.23 121.518C264.80600000000004 122.07900000000001 264.545 122.81700000000001 264.447 123.732L264.487 123.8L269.32000000000005 123.8L269.32000000000005 123.447C269.32000000000005 122.604 269.124 121.932 268.732 121.429C268.341 120.927 267.749 120.675 266.95700000000005 120.675ZM287.19 87.2917C286.461 87.2917 285.885 87.57260000000001 285.462 88.1341C285.039 88.6957 284.77799999999996 89.4336 284.68 90.3481L284.72 90.41590000000001L289.552 90.41590000000001L289.552 90.0627C289.552 89.22070000000001 289.356 88.54830000000001 288.96500000000003 88.04560000000001C288.57300000000004 87.54310000000001 287.98100000000005 87.2917 287.19000000000005 87.2917ZM308.367 123.881L310.635 123.881C311.364 123.881 311.901 123.765 312.248 123.532C312.594 123.298 312.767 122.948 312.767 122.481C312.767 121.952 312.58299999999997 121.564 312.214 121.317C311.84499999999997 121.071 311.283 120.94699999999999 310.527 120.94699999999999L308.36699999999996 120.94699999999999ZM224.656 90.4974L226.924 90.4974C227.65200000000002 90.4974 228.19 90.381 228.537 90.1478C228.883 89.9144 229.056 89.56450000000001 229.056 89.0977C229.056 88.5684 228.872 88.1806 228.50300000000001 87.9336C228.13400000000001 87.687 227.57100000000003 87.5635 226.816 87.5635L224.656 87.5635ZM319.219 125.104C319.219 122.912 319.827 121.117 321.042 119.718C322.256 118.319 323.93899999999996 117.619 326.089 117.619C328.249 117.619 329.941 118.316 331.165 119.711C332.38800000000003 121.106 333 122.90299999999999 333 125.104L333 125.389C333 127.59899999999999 332.391 129.399 331.171 130.789C329.952 132.17899999999997 328.267 132.874 326.116 132.874C323.957 132.874 322.267 132.179 321.048 130.789C319.829 129.399 319.219 127.59899999999999 319.219 125.38899999999998ZM323.147 125.382C323.147 126.72 323.381 127.79400000000001 323.849 128.604C324.317 129.413 325.073 129.818 326.116 129.818C327.133 129.818 327.878 129.411 328.351 128.597C328.823 127.78300000000002 329.059 126.71100000000001 329.059 125.382L329.059 125.09700000000001C329.059 123.795 328.821 122.733 328.34400000000005 121.91000000000001C327.8670000000001 121.08700000000002 327.11500000000007 120.67500000000001 326.08900000000006 120.67500000000001C325.07300000000004 120.67500000000001 324.32800000000003 121.08900000000001 323.85600000000005 121.91700000000002C323.38300000000004 122.74400000000001 323.14700000000005 123.80400000000002 323.14700000000005 125.09700000000002Z " fill="#ffffff" transform="matrix(1,0,0,1,-40,-65)"></path></svg>