<svg id="Слой_1" data-name="Слой 1" xmlns="http://www.w3.org/2000/svg" viewBox="0 0 383.55 384"><defs><style>.cls-1{fill:#fff;}</style></defs><title>logo_it61</title><path class="cls-1" d="M191.77,384A192,192,0,0,1,56.09,56.41,190.54,190.54,0,0,1,191.66,0h0.13a189.92,189.92,0,0,1,85.71,20.31l-7.07,14.16A174.12,174.12,0,0,0,191.78,16h-0.12A176,176,0,0,0,67.42,316.54,174.83,174.83,0,0,0,191.77,368h0.11c97,0,175.93-79,175.87-176.08a174.56,174.56,0,0,0-15.6-72.44L366.54,113a190.73,190.73,0,0,1,17,79c0.06,105.75-85.91,192-191.66,192h-0.12Z"/><path class="cls-1" d="M152.46,261.43H134.24l-0.08-134h18.22Z"/><path class="cls-1" d="M274.6,141.62l-43.07,0,0.07,119.73H213.48L213.4,141.66l-43,0V127.42l104.18-.06v14.26Z"/><path class="cls-1" d="M290.35,65.4A26.74,26.74,0,0,1,293.72,53L309.8,22.15H325l-9.78,18.58c15.09,0,25.57,11.24,25.58,24.42A24.9,24.9,0,0,1,315.58,90C301.51,90,290.36,79.14,290.35,65.4Zm36.93-.14a11.65,11.65,0,0,0-23.31,0A11.65,11.65,0,1,0,327.28,65.26Z"/><path class="cls-1" d="M352.48,35.3h-8.33V22.13h22.52l0,66.66H352.51Z"/></svg>