<svg id="SvgjsSvg1000" xmlns="http://www.w3.org/2000/svg" version="1.1" xmlns:xlink="http://www.w3.org/1999/xlink" xmlns:svgjs="http://svgjs.com/svgjs" width="50" height="49"><defs id="SvgjsDefs1001"></defs><path id="SvgjsPath1007" d="M238.495 1274.99C231.95600000000002 1274.99 225.81 1272.47 221.183 1267.86C216.553 1263.25 214.001 1257.05 213.99699999999999 1250.52C213.98899999999998 1237.04 224.97199999999998 1226 238.48 1226C238.48499999999999 1226 238.49099999999999 1226 238.49599999999998 1226C242.344 1226 246.027 1226.94 249.445 1228.64L248.542 1230.5300000000002C245.407 1228.9700000000003 242.02700000000002 1228.2700000000002 238.496 1228.2700000000002C238.491 1228.2700000000002 238.48600000000002 1228.2700000000002 238.48100000000002 1228.2700000000002C226.08500000000004 1228.2700000000002 216.00700000000003 1238.2900000000002 216.014 1250.6500000000003C216.018 1256.6400000000003 218.36 1262.2600000000002 222.609 1266.5000000000002C226.854 1270.7300000000002 232.496 1273.0500000000002 238.495 1273.0500000000002C238.5 1273.0500000000002 238.504 1273.0500000000002 238.50900000000001 1273.0500000000002C244.514 1273.0500000000002 250.15800000000002 1270.6900000000003 254.401 1266.4500000000003C258.645 1262.2100000000003 260.98 1256.5700000000002 260.976 1250.5800000000004C260.974 1247.3600000000004 260.303 1244.2500000000005 258.983 1241.3400000000004L260.82 1240.5100000000004C262.26 1243.6800000000005 262.992 1247.0600000000004 262.993 1250.5700000000004C262.998 1257.1000000000004 260.453 1263.2200000000005 255.829 1267.8400000000004C251.205 1272.4600000000003 245.054 1274.9900000000005 238.51000000000002 1274.9900000000005C238.50500000000002 1274.9900000000005 238.49900000000002 1274.9900000000005 238.49500000000003 1274.9900000000005ZM249.077 1244.15L243.575 1244.16L243.58399999999997 1259.42L241.26799999999997 1259.42L241.259 1244.16L235.76799999999997 1244.16L235.76699999999997 1242.3400000000001L249.07599999999996 1242.3400000000001ZM251.088 1234.44C251.088 1233.8500000000001 251.275 1233.3400000000001 251.519 1232.8600000000001L253.574 1228.93L255.51500000000001 1228.93L254.26500000000001 1231.3C256.192 1231.3 257.531 1232.73 257.53200000000004 1234.4099999999999C257.533 1236.1699999999998 256.11100000000005 1237.58 254.31300000000005 1237.58C252.51500000000004 1237.58 251.09000000000003 1236.1899999999998 251.08800000000005 1234.4399999999998ZM233.474 1259.42L231.146 1259.42L231.136 1242.3500000000001L233.463 1242.3500000000001ZM255.806 1234.42C255.806 1233.6100000000001 255.144 1232.96 254.31 1232.96C253.49 1232.96 252.829 1233.6100000000001 252.829 1234.42C252.83 1235.24 253.491 1235.92 254.311 1235.92C255.14600000000002 1235.92 255.80700000000002 1235.24 255.806 1234.42ZM259.026 1230.6L257.961 1230.61L257.96000000000004 1228.9299999999998L260.83700000000005 1228.9199999999998L260.84200000000004 1237.4199999999998L259.03000000000003 1237.4199999999998Z " fill="#999da1" transform="matrix(1,0,0,1,-213,-1226)"></path></svg>