<svg id="Слой_1" data-name="Слой 1" xmlns="http://www.w3.org/2000/svg" viewBox="0 0 383.55 384"><defs><style>.cls-1{fill:#fff}</style></defs><title>logo_it61</title><path class="cls-1" d="M191.77 384A192 192 0 0 1 56.09 56.41 190.54 190.54 0 0 1 191.66 0h.13a189.92 189.92 0 0 1 85.71 20.31l-7.07 14.16A174.12 174.12 0 0 0 191.78 16h-.12A176 176 0 0 0 67.42 316.54 174.83 174.83 0 0 0 191.77 368h.11c97 0 175.93-79 175.87-176.08a174.56 174.56 0 0 0-15.6-72.44l14.39-6.48a190.73 190.73 0 0 1 17 79c.06 105.75-85.91 192-191.66 192h-.12z"/><path class="cls-1" d="M152.46 261.43h-18.22l-.08-134h18.22zM274.6 141.62h-43.07l.07 119.73h-18.12l-.08-119.69h-43v-14.24l104.18-.06v14.26zM290.35 65.4a26.74 26.74 0 0 1 3.37-12.4l16.08-30.85H325l-9.78 18.58c15.09 0 25.57 11.24 25.58 24.42A24.9 24.9 0 0 1 315.58 90c-14.07 0-25.22-10.86-25.23-24.6zm36.93-.14a11.65 11.65 0 0 0-23.31 0 11.65 11.65 0 1 0 23.31 0zM352.48 35.3h-8.33V22.13h22.52v66.66h-14.16z"/></svg>