<svg xmlns="http://www.w3.org/2000/svg" width="50" height="49"><path d="M25.495 48.99c-6.539 0-12.685-2.52-17.312-7.13-4.63-4.61-7.182-10.81-7.186-17.34C.989 11.04 11.972 0 25.48 0h.016c3.848 0 7.531.94 10.949 2.64l-.903 1.89c-3.135-1.56-6.515-2.26-10.046-2.26h-.015c-12.396 0-22.474 10.02-22.467 22.38.004 5.99 2.346 11.61 6.595 15.85 4.245 4.23 9.887 6.55 15.886 6.55h.014c6.005 0 11.649-2.36 15.892-6.6a22.271 22.271 0 0 0 6.575-15.87 22.255 22.255 0 0 0-1.993-9.24l1.837-.83a24.16 24.16 0 0 1 2.173 10.06c.005 6.53-2.54 12.65-7.164 17.27-4.624 4.62-10.775 7.15-17.319 7.15h-.015zm10.582-30.84l-5.502.01.009 15.26h-2.316l-.009-15.26h-5.491l-.001-1.82h13.309zm2.011-9.71c0-.59.187-1.1.431-1.58l2.055-3.93h1.941l-1.25 2.37c1.927 0 3.266 1.43 3.267 3.11.001 1.76-1.421 3.17-3.219 3.17-1.798 0-3.223-1.39-3.225-3.14zM20.474 33.42h-2.328l-.01-17.07h2.327zm22.332-25c0-.81-.662-1.46-1.496-1.46-.82 0-1.481.65-1.481 1.46.001.82.662 1.5 1.482 1.5.835 0 1.496-.68 1.495-1.5zm3.22-3.82l-1.065.01-.001-1.68 2.877-.01.005 8.5H46.03z" fill="#999da1"/></svg>