<svg height="80" width="293" xmlns="http://www.w3.org/2000/svg"><path d="m39.65 80c-10.45 0-20.274-4.07-27.668-11.503-7.4-7.437-11.479-17.436-11.485-27.962-.013-21.728 17.54-39.535 39.13-39.535h.026c6.15 0 12.035 1.512 17.498 4.262l-1.443 3.053c-5.01-2.524-10.412-3.653-16.055-3.653h-.024c-19.812 0-35.92 16.152-35.907 36.09.005 9.659 3.748 18.723 10.538 25.548 6.784 6.82 15.801 10.561 25.39 10.561h.022c9.597 0 18.618-3.804 25.4-10.638s10.514-15.933 10.508-25.591c-.003-5.19-1.074-10.206-3.185-14.894l2.937-1.343a39.3 39.3 0 0 1 3.473 16.221c.007 10.526-4.06 20.401-11.45 27.848-7.391 7.447-17.222 11.536-27.68 11.536zm16.913-49.725-8.794.005.015 24.601-3.701.003-.016-24.602-8.774.006-.002-2.93 21.27-.014zm143.399 22.615v11.641h3.969v-11.64h3.954v11.641h3.969v-11.641h3.941v11.573h3.01v8.015h-3.941v-4.891h-18.843v-14.697zm-92.606-25.858v7.172h-3.941v-19.777h7.828c2.259 0 4.036.58 5.332 1.739s1.944 2.685 1.944 4.577c0 1.893-.648 3.415-1.944 4.564-1.296 1.15-3.073 1.726-5.332 1.726zm17.75 23.834h-5.561v16.721h-3.942v-16.72h-5.534v-3.057h15.037zm62.344 2.839c2.052 0 3.658.636 4.818 1.908 1.161 1.273 1.742 2.919 1.742 4.938v.285c0 2.083-.61 3.777-1.829 5.081-1.22 1.304-2.905 1.956-5.055 1.956-2.16 0-3.849-.652-5.068-1.956-1.22-1.304-1.829-2.998-1.829-5.081v-1.969c.009-3.224.634-5.71 1.876-7.458s2.866-2.821 4.873-3.219c.872-.145 1.518-.338 1.936-.577.419-.241.628-.632.628-1.176h3.05l.041.082c.036 1.757-.365 2.92-1.201 3.491-.837.57-2.263 1.014-4.279 1.331-1.008.172-1.811.57-2.409 1.196-.599.624-.984 1.494-1.154 2.608l.054.068a6.196 6.196 0 0 1 1.734-1.087 5.244 5.244 0 0 1 2.072-.421zm-38.657 6.398c0-2.192.608-3.987 1.823-5.386 1.214-1.399 2.897-2.099 5.048-2.099 2.159 0 3.851.697 5.075 2.092 1.223 1.395 1.835 3.192 1.835 5.393v.285c0 2.21-.609 4.01-1.829 5.4-1.219 1.39-2.904 2.085-5.054 2.085-2.16 0-3.85-.695-5.069-2.085s-1.829-3.19-1.829-5.4zm15.603 0c0-2.192.608-3.987 1.822-5.386 1.215-1.399 2.898-2.099 5.048-2.099 2.16 0 3.851.697 5.075 2.092s1.836 3.192 1.836 5.393v.285c0 2.21-.61 4.01-1.829 5.4s-2.904 2.085-5.055 2.085c-2.159 0-3.849-.695-5.068-2.085s-1.829-3.19-1.829-5.4zm-44.109-33.383c0-2.191.607-3.987 1.822-5.386 1.215-1.4 2.898-2.099 5.048-2.099 2.16 0 3.851.698 5.075 2.092 1.224 1.395 1.836 3.192 1.836 5.393v.285c0 2.21-.61 4.01-1.829 5.4-1.22 1.39-2.905 2.085-5.055 2.085-2.16 0-3.849-.695-5.068-2.085-1.22-1.39-1.829-3.19-1.829-5.4zm44.015 0c0-2.191.607-3.987 1.822-5.386 1.214-1.4 2.897-2.099 5.048-2.099 2.159 0 3.851.698 5.075 2.092 1.223 1.395 1.836 3.192 1.836 5.393v.285c0 2.21-.61 4.01-1.829 5.4-1.22 1.39-2.905 2.085-5.055 2.085-2.16 0-3.849-.695-5.068-2.085-1.22-1.39-1.829-3.19-1.829-5.4zm60.563 0c0-2.191.607-3.987 1.822-5.386 1.215-1.4 2.898-2.099 5.048-2.099 2.16 0 3.851.698 5.075 2.092 1.224 1.395 1.836 3.192 1.836 5.393v.285c0 2.21-.61 4.01-1.829 5.4-1.22 1.39-2.905 2.085-5.055 2.085-2.16 0-3.849-.695-5.068-2.085-1.22-1.39-1.829-3.19-1.829-5.4zm-8.76 1.983h-1.512v5.502h-3.941v-14.698h3.941v5.597h1.377l3.145-5.597h4.981l-4.765 6.928 5.196 7.77h-5.25zm11.203 39.171c-2.106 0-3.788-.68-5.048-2.038s-1.89-3.083-1.89-5.175v-.544c0-2.182.596-3.98 1.789-5.392 1.192-1.413 2.792-2.115 4.798-2.106 1.971 0 3.501.598 4.589 1.793 1.089 1.195 1.633 2.812 1.633 4.85v2.159h-8.719l-.027.081c.072.966.394 1.759.965 2.382.571.622 1.348.934 2.328.934.873 0 1.598-.089 2.174-.265.576-.177 1.206-.456 1.889-.836l1.066 2.451c-.593.492-1.372.899-2.334 1.221-.963.323-2.034.485-3.213.485zm20.233-33.384c-2.106 0-3.788-.68-5.048-2.038s-1.89-3.083-1.89-5.175v-.543c0-2.182.596-3.98 1.789-5.393 1.191-1.413 2.791-2.115 4.798-2.106 1.971 0 3.5.598 4.589 1.793 1.089 1.196 1.633 2.812 1.633 4.85v2.16h-8.719l-.027.08c.072.966.393 1.76.965 2.382.571.623 1.347.934 2.328.934.873 0 1.597-.088 2.173-.265s1.206-.455 1.89-.836l1.066 2.451c-.593.492-1.372.899-2.335 1.222-.963.322-2.033.484-3.212.484zm-84.373-11.926h-4.67v11.64h-3.955v-11.64h-4.602v-3.057h13.227zm-21.947 42.254c.702 0 1.264-.207 1.687-.619s.634-.962.634-1.65h3.578l.04.081c.036 1.486-.52 2.731-1.667 3.736s-2.571 1.508-4.272 1.508c-2.177 0-3.856-.693-5.035-2.079-1.178-1.385-1.768-3.165-1.768-5.338v-.408c0-2.164.588-3.943 1.762-5.338s2.85-2.092 5.028-2.092c1.799 0 3.25.516 4.353 1.549 1.102 1.032 1.635 2.39 1.599 4.075l-.027.081h-3.591c0-.76-.207-1.392-.62-1.895-.414-.502-.986-.754-1.714-.754-1.045 0-1.78.407-2.207 1.221-.428.814-.641 1.863-.641 3.147v.407c0 1.311.213 2.367.641 3.167.427.8 1.168 1.201 2.22 1.201zm100.381 0c.702 0 1.264-.207 1.687-.619s.634-.962.634-1.65h3.577l.041.081c.035 1.486-.52 2.731-1.667 3.736-1.148 1.005-2.572 1.508-4.272 1.508-2.178 0-3.856-.693-5.035-2.079-1.179-1.385-1.768-3.165-1.768-5.338v-.408c0-2.164.587-3.943 1.761-5.338 1.175-1.395 2.85-2.092 5.028-2.092 1.8 0 3.251.516 4.353 1.549 1.102 1.032 1.635 2.39 1.6 4.075l-.027.081h-3.591c0-.76-.207-1.392-.621-1.895-.414-.502-.985-.754-1.714-.754-1.044 0-1.78.407-2.206 1.221-.428.814-.642 1.863-.642 3.147v.407c0 1.311.214 2.367.642 3.167.426.8 1.167 1.201 2.22 1.201zm-39.359-33.384c.702 0 1.264-.206 1.688-.618.423-.412.634-.962.634-1.65h3.577l.04.08c.036 1.486-.52 2.731-1.667 3.737-1.147 1.005-2.571 1.507-4.272 1.507-2.177 0-3.856-.693-5.034-2.078-1.179-1.386-1.769-3.165-1.769-5.339v-.407c0-2.165.588-3.944 1.762-5.339 1.174-1.394 2.85-2.092 5.028-2.092 1.8 0 3.25.516 4.353 1.549 1.102 1.032 1.635 2.39 1.599 4.075l-.027.081h-3.59c0-.76-.207-1.392-.621-1.894-.414-.503-.986-.754-1.714-.754-1.044 0-1.78.407-2.207 1.22-.427.814-.641 1.863-.641 3.147v.407c0 1.311.214 2.367.641 3.167s1.168 1.2 2.22 1.2zm-59.618 0c.702 0 1.264-.206 1.687-.618s.634-.962.634-1.65h3.577l.041.08c.035 1.486-.52 2.731-1.667 3.737-1.148 1.005-2.572 1.507-4.272 1.507-2.178 0-3.856-.693-5.035-2.078-1.179-1.386-1.768-3.165-1.768-5.339v-.407c0-2.165.587-3.944 1.761-5.339 1.175-1.394 2.851-2.092 5.028-2.092 1.8 0 3.251.516 4.353 1.549 1.102 1.032 1.635 2.39 1.6 4.075l-.027.081h-3.591c0-.76-.207-1.392-.621-1.894-.413-.503-.985-.754-1.714-.754-1.044 0-1.779.407-2.206 1.22-.428.814-.642 1.863-.642 3.147v.407c0 1.311.214 2.367.642 3.167.427.8 1.167 1.2 2.22 1.2zm119.52 24.513h-4.67v11.641h-3.955v-11.641h-4.602v-3.056h13.227zm-81.43-21.742v-14.698h6.101c1.943 0 3.457.344 4.542 1.032 1.084.689 1.626 1.712 1.626 3.07 0 .689-.227 1.3-.682 1.834-.454.535-1.1.942-1.937 1.223 1.107.217 1.946.627 2.518 1.23.571.602.857 1.305.857 2.111 0 1.386-.516 2.432-1.546 3.138-1.03.707-2.508 1.06-4.434 1.06zm83.711 33.383v-14.697h6.101c1.944 0 3.457.344 4.542 1.032 1.084.688 1.626 1.712 1.626 3.07 0 .689-.227 1.3-.681 1.834-.455.534-1.1.942-1.937 1.222 1.107.218 1.945.628 2.517 1.23.571.602.857 1.306.857 2.112 0 1.386-.515 2.432-1.545 3.138-1.031.706-2.509 1.059-4.434 1.059zm-204.648-52.975c0-.95.298-1.782.688-2.546l3.284-6.34 3.103-.003-1.998 3.819c3.08-.002 5.22 2.31 5.221 5.017.002 2.845-2.272 5.114-5.145 5.116-2.874.001-5.151-2.24-5.153-5.064zm-28.152 40.279-3.72.002-.018-27.533 3.72-.002zm72.374 13.108v-20h4v20zm-31.536-59.572h-1.701l-.002-2.706 4.597-.003.009 13.696-2.897.002zm80.257 51.954c0 1.338.234 2.412.702 3.222.468.809 1.224 1.214 2.268 1.214 1.016 0 1.761-.407 2.234-1.221.472-.814.708-1.886.708-3.215v-.285c0-1.302-.238-2.364-.715-3.187s-1.228-1.235-2.254-1.235c-1.017 0-1.762.414-2.234 1.242-.473.827-.709 1.887-.709 3.18zm15.603 0c0 1.338.234 2.412.702 3.222.467.809 1.223 1.214 2.267 1.214 1.017 0 1.762-.407 2.234-1.221.473-.814.709-1.886.709-3.215v-.285c0-1.302-.239-2.364-.716-3.187-.476-.823-1.228-1.235-2.254-1.235-1.017 0-1.761.414-2.234 1.242-.472.827-.708 1.887-.708 3.18zm-.095-33.383c0 1.338.234 2.412.702 3.221.468.81 1.224 1.214 2.268 1.214 1.017 0 1.761-.407 2.234-1.221.472-.814.708-1.885.708-3.214v-.286c0-1.301-.238-2.364-.715-3.187-.477-.822-1.228-1.234-2.254-1.234-1.017 0-1.761.414-2.234 1.241s-.709 1.888-.709 3.18zm-44.014 0c0 1.338.234 2.412.702 3.221.467.81 1.223 1.214 2.267 1.214 1.017 0 1.762-.407 2.234-1.221s.708-1.885.708-3.214v-.286c0-1.301-.238-2.364-.715-3.187-.477-.822-1.228-1.234-2.254-1.234-1.017 0-1.761.414-2.234 1.241-.472.827-.708 1.888-.708 3.18zm104.578 0c0 1.338.234 2.412.702 3.221.467.81 1.223 1.214 2.267 1.214 1.017 0 1.762-.407 2.234-1.221s.708-1.885.708-3.214v-.286c0-1.301-.238-2.364-.715-3.187-.477-.822-1.228-1.234-2.254-1.234-1.017 0-1.761.414-2.234 1.241-.472.827-.708 1.888-.708 3.18zm-41.694 29.763c-1.017 0-1.759.353-2.227 1.058s-.702 1.614-.702 2.725v.286c0 1.202.234 2.167.702 2.895s1.219 1.092 2.254 1.092c1.017 0 1.761-.364 2.234-1.092.472-.728.708-1.693.708-2.895v-.286c0-1.111-.238-2.02-.715-2.725s-1.228-1.058-2.254-1.058zm-79.743-32.786h3.887c1.098 0 1.93-.3 2.497-.903.567-.602.851-1.37.851-2.303 0-.95-.282-1.736-.844-2.356s-1.397-.93-2.504-.93h-3.887zm16.644 37.024v-3h8v3zm-56.682-46.415c0-1.32-1.058-2.36-2.392-2.359a2.352 2.352 0 0 0 -2.366 2.361c.001 1.319 1.058 2.406 2.369 2.405a2.397 2.397 0 0 0 2.389-2.407zm201.049 46.877v3.111h3.105c.693 0 1.205-.129 1.538-.387s.5-.641.5-1.148-.16-.897-.479-1.168c-.32-.272-.839-.408-1.559-.408zm-83.711-33.383v3.11h3.104c.693 0 1.206-.13 1.539-.387.333-.258.5-.64.5-1.148 0-.507-.16-.896-.48-1.168-.319-.272-.839-.407-1.559-.407zm42.301 27.596c-.729 0-1.304.281-1.727.843-.424.561-.685 1.299-.783 2.214l.04.068h4.833v-.353c0-.843-.196-1.515-.588-2.018-.391-.502-.983-.754-1.775-.754zm20.233-33.383c-.729 0-1.305.28-1.728.842s-.684 1.3-.782 2.214l.04.068h4.832v-.353c0-.842-.196-1.515-.587-2.017-.392-.503-.984-.754-1.775-.754zm21.177 36.589h2.268c.729 0 1.266-.116 1.613-.349.346-.234.519-.584.519-1.051 0-.529-.184-.917-.553-1.164-.369-.246-.931-.37-1.687-.37h-2.16zm-83.711-33.384h2.268c.728 0 1.266-.116 1.613-.35.346-.233.519-.582.519-1.05 0-.529-.184-.916-.553-1.163s-.932-.37-1.687-.37h-2.16zm94.563 34.607c0-2.192.608-3.987 1.823-5.386 1.214-1.399 2.897-2.099 5.047-2.099 2.16 0 3.852.697 5.076 2.092 1.223 1.395 1.835 3.192 1.835 5.393v.285c0 2.21-.609 4.01-1.829 5.4-1.219 1.39-2.904 2.085-5.055 2.085-2.159 0-3.849-.695-5.068-2.085s-1.829-3.19-1.829-5.4zm3.928.278c0 1.338.234 2.412.702 3.222.468.809 1.224 1.214 2.267 1.214 1.017 0 1.762-.407 2.235-1.221.472-.814.708-1.886.708-3.215v-.285c0-1.302-.238-2.364-.715-3.187s-1.229-1.235-2.255-1.235c-1.016 0-1.761.414-2.233 1.242-.473.827-.709 1.887-.709 3.18z" fill="#fff"/></svg>