<svg id="Слой_1" data-name="Слой 1" xmlns="http://www.w3.org/2000/svg" viewBox="0 0 383 383"><defs><style>.cls-1{fill:#fff;}</style></defs><title>logo</title><path class="cls-1" d="M191.72,224A108.14,108.14,0,0,1,83.48,115.6C83.44,55.91,132,7,191.65,7h0.07A107.43,107.43,0,0,1,240.1,18.71l-4,8.35A98,98,0,0,0,191.72,17h-0.07a99.23,99.23,0,0,0-99.26,99.16A99,99,0,0,0,191.72,215h0.06A99.23,99.23,0,0,0,282.24,74.9l8.12-3.67A108.17,108.17,0,0,1,191.79,224h-0.07Z"/><path class="cls-1" d="M170,155H159.75l0-75.63H170Z"/><path class="cls-1" d="M239,87.41H214.66l0,67.58H204.47l0-67.58-24.26,0V79.4l58.8,0v8.05Z"/><path class="cls-1" d="M247.85,44.39a15.1,15.1,0,0,1,1.9-7L258.83,20h8.58l-5.52,10.49c8.51,0,14.43,6.35,14.43,13.78A14.24,14.24,0,0,1,247.85,44.39Zm20.84-.08a6.58,6.58,0,0,0-13.15,0A6.58,6.58,0,1,0,268.7,44.32Z"/><path class="cls-1" d="M282.92,27.4h-4.7V20h12.71l0,37.62h-8Z"/><path class="cls-1" d="M48.54,288.76v13.71H41v-37.8H56q6.52,0,10.26,3.32a12.08,12.08,0,0,1,0,17.47q-3.74,3.3-10.26,3.3H48.54Zm0-5.84H56a6.31,6.31,0,0,0,4.8-1.73,6.14,6.14,0,0,0,1.64-4.4,6.43,6.43,0,0,0-1.62-4.5A6.2,6.2,0,0,0,56,270.51H48.54v12.41Z"/><path class="cls-1" d="M73.41,288.16a15.08,15.08,0,0,1,3.51-10.29q3.5-4,9.71-4t9.76,4a15,15,0,0,1,3.53,10.31v0.55A15,15,0,0,1,96.4,299q-3.52,4-9.72,4t-9.75-4a15,15,0,0,1-3.52-10.32v-0.55ZM81,288.69a12.19,12.19,0,0,0,1.35,6.16,5.19,5.19,0,0,0,8.66,0,12.11,12.11,0,0,0,1.36-6.14v-0.54A12,12,0,0,0,91,282.06a4.66,4.66,0,0,0-4.34-2.36,4.6,4.6,0,0,0-4.3,2.37A12.09,12.09,0,0,0,81,288.15v0.54Z"/><path class="cls-1" d="M116.38,297.17a4.47,4.47,0,0,0,3.25-1.18,4.19,4.19,0,0,0,1.22-3.15h6.88l0.08,0.16a8.79,8.79,0,0,1-3.21,7.14,12.07,12.07,0,0,1-8.22,2.88q-6.28,0-9.68-4a15.14,15.14,0,0,1-3.4-10.2v-0.78a15.24,15.24,0,0,1,3.39-10.2q3.39-4,9.67-4a11.8,11.8,0,0,1,8.37,3,9.84,9.84,0,0,1,3.08,7.79l-0.05.16h-6.91a5.49,5.49,0,0,0-1.19-3.62,4.05,4.05,0,0,0-3.3-1.44,4.4,4.4,0,0,0-4.25,2.33,12.83,12.83,0,0,0-1.23,6v0.78a12.79,12.79,0,0,0,1.23,6.05A4.44,4.44,0,0,0,116.38,297.17Z"/><path class="cls-1" d="M155.9,280.22h-9v22.25h-7.61V280.22h-8.85v-5.84H155.9v5.84Z"/><path class="cls-1" d="M158.08,288.16a15.08,15.08,0,0,1,3.51-10.29q3.5-4,9.71-4t9.76,4a15,15,0,0,1,3.53,10.31v0.55A15,15,0,0,1,181.07,299q-3.52,4-9.72,4t-9.75-4a15,15,0,0,1-3.52-10.32v-0.55Zm7.56,0.53a12.19,12.19,0,0,0,1.35,6.16,5.19,5.19,0,0,0,8.66,0,12.11,12.11,0,0,0,1.36-6.14v-0.54a12,12,0,0,0-1.38-6.09,4.66,4.66,0,0,0-4.34-2.36,4.6,4.6,0,0,0-4.3,2.37,12.09,12.09,0,0,0-1.36,6.08v0.54Z"/><path class="cls-1" d="M189.65,302.47V274.37h11.74q5.61,0,8.74,2a6.49,6.49,0,0,1,3.13,5.87,5.24,5.24,0,0,1-1.31,3.51,8.16,8.16,0,0,1-3.73,2.34,8.84,8.84,0,0,1,4.84,2.35,5.66,5.66,0,0,1,1.65,4,6.79,6.79,0,0,1-3,6q-3,2-8.53,2H189.65Zm7.58-16.64h4.36a5.68,5.68,0,0,0,3.1-.67,2.25,2.25,0,0,0,1-2,2.48,2.48,0,0,0-1.06-2.23,5.94,5.94,0,0,0-3.25-.71h-4.15v5.61Zm0,4.93v5.95h6a4.84,4.84,0,0,0,3-.74,2.6,2.6,0,0,0,1-2.19,2.76,2.76,0,0,0-.92-2.23,4.63,4.63,0,0,0-3-.78h-6Z"/><path class="cls-1" d="M231.06,297.17a4.47,4.47,0,0,0,3.25-1.18,4.19,4.19,0,0,0,1.22-3.15h6.88l0.08,0.16a8.79,8.79,0,0,1-3.21,7.14,12.07,12.07,0,0,1-8.22,2.88q-6.28,0-9.68-4a15.14,15.14,0,0,1-3.4-10.2v-0.78a15.24,15.24,0,0,1,3.39-10.2q3.39-4,9.67-4a11.8,11.8,0,0,1,8.37,3,9.84,9.84,0,0,1,3.08,7.79l-0.05.16h-6.91a5.49,5.49,0,0,0-1.19-3.62,4.05,4.05,0,0,0-3.3-1.44,4.4,4.4,0,0,0-4.25,2.33,12.83,12.83,0,0,0-1.23,6v0.78a12.79,12.79,0,0,0,1.23,6.05A4.44,4.44,0,0,0,231.06,297.17Z"/><path class="cls-1" d="M257.73,292h-2.91v10.52h-7.58V274.37h7.58v10.7h2.65l6-10.7h9.58l-9.17,13.24,10,14.85h-10.1Z"/><path class="cls-1" d="M274.58,288.16a15.08,15.08,0,0,1,3.51-10.29q3.5-4,9.71-4t9.76,4a15,15,0,0,1,3.53,10.31v0.55A15,15,0,0,1,297.57,299q-3.52,4-9.72,4t-9.75-4a15,15,0,0,1-3.52-10.32v-0.55Zm7.56,0.53a12.19,12.19,0,0,0,1.35,6.16,5.19,5.19,0,0,0,8.66,0,12.11,12.11,0,0,0,1.36-6.14v-0.54a12,12,0,0,0-1.38-6.09,4.66,4.66,0,0,0-4.34-2.36,4.6,4.6,0,0,0-4.3,2.37,12.09,12.09,0,0,0-1.36,6.08v0.54Z"/><path class="cls-1" d="M318.2,303a12.65,12.65,0,0,1-9.71-3.89,13.93,13.93,0,0,1-3.63-9.89v-1a15.37,15.37,0,0,1,3.44-10.31,11.42,11.42,0,0,1,9.23-4q5.69,0,8.83,3.43t3.14,9.27v4.13H312.72l-0.05.15a7.29,7.29,0,0,0,1.86,4.55,5.8,5.8,0,0,0,4.48,1.78,14.59,14.59,0,0,0,4.18-.51,19.22,19.22,0,0,0,3.63-1.6l2.05,4.68a14,14,0,0,1-4.49,2.33A19.47,19.47,0,0,1,318.2,303Zm-0.67-23.32a4,4,0,0,0-3.32,1.61,8.37,8.37,0,0,0-1.51,4.23l0.08,0.13h9.3V285a6.08,6.08,0,0,0-1.13-3.86A4.07,4.07,0,0,0,317.53,279.7Z"/><path class="cls-1" d="M17.42,366.28H9.84v-37.8h7.58v37.8Z"/><path class="cls-1" d="M51.09,334.32H40.4v32H32.82v-32H22.17v-5.84H51.09v5.84Z"/><path class="cls-1" d="M64.18,353H49.54v-5.84H64.18V353Z"/><path class="cls-1" d="M82.09,361a4.47,4.47,0,0,0,3.25-1.18,4.19,4.19,0,0,0,1.22-3.15h6.88l0.08,0.16a8.79,8.79,0,0,1-3.21,7.14,12.07,12.07,0,0,1-8.22,2.88q-6.28,0-9.68-4a15.14,15.14,0,0,1-3.4-10.2v-0.78a15.24,15.24,0,0,1,3.39-10.2q3.39-4,9.67-4a11.8,11.8,0,0,1,8.37,3,9.84,9.84,0,0,1,3.08,7.79l-0.05.16H86.56a5.49,5.49,0,0,0-1.19-3.62,4.05,4.05,0,0,0-3.3-1.44,4.4,4.4,0,0,0-4.25,2.33,12.83,12.83,0,0,0-1.23,6v0.78a12.79,12.79,0,0,0,1.23,6.05A4.44,4.44,0,0,0,82.09,361Z"/><path class="cls-1" d="M96.66,352a15.08,15.08,0,0,1,3.51-10.29q3.5-4,9.71-4t9.76,4A15,15,0,0,1,123.17,352v0.55a15,15,0,0,1-3.52,10.32q-3.52,4-9.72,4t-9.75-4a15,15,0,0,1-3.52-10.32V352Zm7.56,0.53a12.19,12.19,0,0,0,1.35,6.16,5.19,5.19,0,0,0,8.66,0,12.11,12.11,0,0,0,1.36-6.14V352a12,12,0,0,0-1.38-6.09,4.66,4.66,0,0,0-4.34-2.36,4.6,4.6,0,0,0-4.3,2.37,12.09,12.09,0,0,0-1.36,6.08v0.54Z"/><path class="cls-1" d="M126.67,352a15.08,15.08,0,0,1,3.51-10.29q3.5-4,9.71-4t9.76,4A15,15,0,0,1,153.18,352v0.55a15,15,0,0,1-3.52,10.32q-3.52,4-9.72,4t-9.75-4a15,15,0,0,1-3.52-10.32V352Zm7.56,0.53a12.19,12.19,0,0,0,1.35,6.16,5.19,5.19,0,0,0,8.66,0,12.11,12.11,0,0,0,1.36-6.14V352a12,12,0,0,0-1.38-6.09,4.66,4.66,0,0,0-4.34-2.36,4.6,4.6,0,0,0-4.3,2.37,12.09,12.09,0,0,0-1.36,6.08v0.54Z"/><path class="cls-1" d="M171,339.74q5.92,0,9.27,3.65a13.41,13.41,0,0,1,3.35,9.44v0.55a13.59,13.59,0,0,1-3.52,9.71q-3.52,3.74-9.72,3.74t-9.75-3.74a13.59,13.59,0,0,1-3.52-9.71v-3.76q0-9.24,3.61-14.25a14.7,14.7,0,0,1,9.37-6.15,11.71,11.71,0,0,0,3.73-1.1,2.39,2.39,0,0,0,1.21-2.25h5.87L181,326q0.1,5-2.31,6.67t-8.23,2.54a8.1,8.1,0,0,0-4.63,2.28,8.94,8.94,0,0,0-2.22,5l0.1,0.13a12,12,0,0,1,3.34-2.08A10.16,10.16,0,0,1,171,339.74Zm-0.67,5.84a4.78,4.78,0,0,0-4.28,2,9.2,9.2,0,0,0-1.35,5.21v0.54a10.06,10.06,0,0,0,1.35,5.53,5.51,5.51,0,0,0,8.63,0,10,10,0,0,0,1.36-5.53v-0.54a9.07,9.07,0,0,0-1.38-5.21A4.87,4.87,0,0,0,170.35,345.58Z"/><path class="cls-1" d="M195.09,338.18v22.25h7.63V338.18h7.61v22.25H218V338.18h7.58v22.12h5.79v15.32h-7.58v-9.35H187.51V338.18h7.58Z"/><path class="cls-1" d="M247.69,366.82a12.65,12.65,0,0,1-9.71-3.89,13.93,13.93,0,0,1-3.63-9.89v-1a15.37,15.37,0,0,1,3.44-10.31,11.42,11.42,0,0,1,9.23-4q5.69,0,8.83,3.43t3.14,9.27v4.13H242.22l-0.05.15A7.29,7.29,0,0,0,244,359.2,5.8,5.8,0,0,0,248.5,361a14.59,14.59,0,0,0,4.18-.51,19.22,19.22,0,0,0,3.63-1.6l2.05,4.68a14,14,0,0,1-4.49,2.33A19.47,19.47,0,0,1,247.69,366.82ZM247,343.51a4,4,0,0,0-3.32,1.61,8.37,8.37,0,0,0-1.51,4.23l0.08,0.13h9.3V348.8a6.08,6.08,0,0,0-1.13-3.86A4.07,4.07,0,0,0,247,343.51Z"/><path class="cls-1" d="M275.19,361a4.47,4.47,0,0,0,3.25-1.18,4.19,4.19,0,0,0,1.22-3.15h6.88l0.08,0.16a8.79,8.79,0,0,1-3.21,7.14,12.07,12.07,0,0,1-8.22,2.88q-6.28,0-9.68-4a15.14,15.14,0,0,1-3.4-10.2v-0.78a15.24,15.24,0,0,1,3.39-10.2q3.39-4,9.67-4a11.8,11.8,0,0,1,8.37,3,9.84,9.84,0,0,1,3.08,7.79l-0.05.16h-6.91a5.49,5.49,0,0,0-1.19-3.62,4.05,4.05,0,0,0-3.3-1.44,4.4,4.4,0,0,0-4.25,2.33,12.83,12.83,0,0,0-1.23,6v0.78a12.79,12.79,0,0,0,1.23,6.05A4.44,4.44,0,0,0,275.19,361Z"/><path class="cls-1" d="M314.71,344h-9v22.25h-7.61V344h-8.85v-5.84h25.45V344Z"/><path class="cls-1" d="M319.1,366.28V338.18h11.74q5.61,0,8.74,2A6.49,6.49,0,0,1,342.7,346a5.24,5.24,0,0,1-1.31,3.51,8.16,8.16,0,0,1-3.73,2.34,8.84,8.84,0,0,1,4.84,2.35,5.66,5.66,0,0,1,1.65,4,6.79,6.79,0,0,1-3,6q-3,2-8.53,2H319.1Zm7.58-16.64H331a5.68,5.68,0,0,0,3.1-.67,2.25,2.25,0,0,0,1-2,2.48,2.48,0,0,0-1.06-2.23,5.94,5.94,0,0,0-3.25-.71h-4.15v5.61Zm0,4.93v5.95h6a4.84,4.84,0,0,0,3-.74,2.6,2.6,0,0,0,1-2.19,2.76,2.76,0,0,0-.92-2.23,4.63,4.63,0,0,0-3-.78h-6Z"/><path class="cls-1" d="M347.55,352a15.08,15.08,0,0,1,3.51-10.29q3.5-4,9.71-4t9.76,4A15,15,0,0,1,374.06,352v0.55a15,15,0,0,1-3.52,10.32q-3.52,4-9.72,4t-9.75-4a15,15,0,0,1-3.52-10.32V352Zm7.56,0.53a12.19,12.19,0,0,0,1.35,6.16,5.19,5.19,0,0,0,8.66,0,12.11,12.11,0,0,0,1.36-6.14V352a12,12,0,0,0-1.38-6.09,4.66,4.66,0,0,0-4.34-2.36,4.6,4.6,0,0,0-4.3,2.37,12.09,12.09,0,0,0-1.36,6.08v0.54Z"/></svg>